<?xml version="1.0" encoding="utf-8"?>
<!-- Generator: Adobe Illustrator 23.0.2, SVG Export Plug-In . SVG Version: 6.00 Build 0)  -->
<svg version="1.1" id="Layer_1" xmlns="http://www.w3.org/2000/svg" xmlns:xlink="http://www.w3.org/1999/xlink" x="0px" y="0px"
	 viewBox="0 0 115 117" style="enable-background:new 0 0 115 117;" xml:space="preserve">
<style type="text/css">
	.st0{fill:#FFFFFF;}
	.st1{clip-path:url(#SVGID_2_);}
	.st2{fill-rule:evenodd;clip-rule:evenodd;fill:#FFFFFF;}
	.st3{fill:rgb(52, 62, 68);}
</style>
<circle class="st0" cx="57.5" cy="58.3" r="35.6"/>
<g>
	<defs>
		<rect id="SVGID_1_" width="115" height="116.6"/>
	</defs>
	<clipPath id="SVGID_2_">
		<use xlink:href="#SVGID_1_"  style="overflow:visible;"/>
	</clipPath>
	<g class="st1">
		<path class="st2" d="M102,50.8l0.7,7.3l2.3-0.2l-0.4-4.4l2.6-0.2l0.3,2.7l2.5-0.2l-0.3-2.7l2.6-0.3l0.4,4.4l2.4-0.2l-0.7-7.4
			L102,50.8z M107.3,41.6l0.4,1.2h0c0.3,0.6,1.1,0.8,1.7,0.6c0.6-0.2,1-0.8,0.9-1.5l-0.3-1.1L107.3,41.6z M99.4,41.1l0.9,3.1
			l4.9-1.6l0.2,0.8l-4.4,2.9l0.9,3l4.8-3.4c0.9,0.8,2.2,1,3.4,0.6c1.8-0.5,2.9-2.3,2.5-4.2l-1.5-5.1L99.4,41.1z M97.4,36.3l1.3,2.8
			l11-5.4l-1.5-2.9L97.4,36.3z M91.2,27.6L93,30l3.9-3l1.4,1.7l-4,3.2l1.9,2.4l9.5-7.8L104,24l-3.8,3l-1.4-1.7l3.7-3l-1.7-2.5
			L91.2,27.6z M86.4,18.4c-0.4,0.6-0.6,1.4-0.6,2.1c0,0.8,0.1,1.7,0.5,2.5c0.8,1.7,2.7,2.5,4.5,2c1.9-0.5,3.1-2.5,2.8-4.4l-0.9-3.4
			c-0.1-0.3,0-0.7,0.3-1c0.3-0.2,0.6-0.3,0.9-0.2c0.5,0.2,0.8,0.7,0.9,1.2c0.1,0.5,0,0.9-0.3,1.2l2.1,0.9c0.4-0.8,0.5-1.8,0.3-2.7
			c-0.2-0.9-0.7-1.7-1.3-2.2c-1.1-0.9-2.5-1.1-3.8-0.6c-1.4,0.6-2.3,2.1-2.1,3.6l0.9,4c0,0.5-0.3,0.9-0.8,1.1
			c-0.6,0.2-1.3-0.1-1.5-0.7c-0.1-0.4-0.2-0.8-0.2-1.2c0-0.5,0.1-0.9,0.3-1.4L86.4,18.4z M73.2,14.9l2.5,1.1L79,9.7L77.3,17l1.4,0.7
			l4.9-5l-3.1,5.9l2.4,1.3l5.9-10.8l-3.7-2l-3.6,3.9l1.3-5.3l-3.6-2.2L73.2,14.9z M68,8.9l1.7,0.4l0-4.2L68,8.9z M63.7,12.7l2.4,0.5
			l0.9-2.2l2.8,0.6v2.4l2.7,0.6l0-12.8L69,1.1L63.7,12.7z M53.7,12.5h3l0.2-4.6l2.1,0l-0.2,4.7h3l0.4-12.3h-3.1l-0.2,5l-2,0l0.2-5
			L54.1,0L53.7,12.5z M50.4,13.1l1.2-0.2l-1.3-6.1l-3.8,0.9l0.4,2.2l1.5-0.2c0,0.2,0,0.3,0,0.5c0,0.2,0,0.4,0,0.6
			c-0.2,0.5-0.6,0.8-1.1,0.8c-0.5,0.1-1.1-0.2-1.3-0.6c-0.4-0.9-0.7-1.8-0.9-2.7c-0.2-1.2-0.3-2.4-0.3-3.6c0-0.4,0.3-0.8,0.8-0.9
			c0.4-0.1,0.8,0.1,1,0.4s0.4,0.6,0.6,1c0.1,0.2,0.2,0.4,0.3,0.7l2.5-0.9c-0.1-0.4-0.3-0.8-0.5-1.2c-0.2-0.4-0.5-0.8-0.8-1.2
			C47.7,1.4,46.3,1,45,1.3c-1.2,0.3-2.2,1.2-2.6,2.3c-0.5,1.5-0.7,3.1-0.5,4.7c0.2,1.6,0.9,3.2,1.9,4.5c0.8,1,2.2,1.4,3.5,1.2
			c1-0.2,1.9-0.8,2.4-1.7L50.4,13.1z M33.9,19.1l2.3-1.1l-2.8-5.9l6,4.3l2-0.9L36,4.2l-2.3,1.2l2.5,5.2l-5.3-3.8l-2.4,1.1L33.9,19.1
			z M12.5,29.8l1.3-2.4c-0.4-0.2-0.8-0.4-1.2-0.5c-0.5-0.2-1-0.3-1.5-0.4c-1.4,0-2.7,0.8-3.4,2c-0.6,1.1-0.6,2.4,0,3.5
			c0.7,1.4,1.9,2.6,3.2,3.6c1.3,0.9,2.8,1.4,4.4,1.6c1.4,0.1,2.8-0.5,3.6-1.7c1-1.4,1.1-3.2,0.1-4.6c-0.3-0.3-0.5-0.6-0.8-0.8
			c-0.3-0.3-0.6-0.5-0.9-0.8l-1.5,2l0.8,0.5c0.2,0.2,0.5,0.5,0.6,0.7c0.3,0.5,0.3,1.1,0,1.5c-0.3,0.5-0.9,0.7-1.5,0.5
			c-1.1-0.3-2-0.8-3-1.3c-1.1-0.6-2-1.4-2.8-2.2c-0.3-0.3-0.3-0.8,0-1.2c0.2-0.3,0.6-0.4,0.9-0.3h0c0.3,0.1,0.6,0.2,0.9,0.3
			C12,29.5,12.2,29.7,12.5,29.8z M1.7,44.1l8.8,3.3c0.5,0.1,1,0.1,1.5,0c0.3,0,0.6-0.2,0.9-0.3c0.9-0.5,1.6-1.1,2-2
			c0.5-1.1,0.5-2.3,0.1-3.5c-0.1-0.3-0.2-0.5-0.4-0.8c-0.3-0.5-0.8-0.9-1.4-1.2L5,36l-1.4,2.9l8.7,3.3l0,0c0.5,0.3,0.6,0.9,0.4,1.5
			c-0.2,0.5-0.7,0.9-1.3,0.8l-8.6-3.2L1.7,44.1z M29.2,22.1l2.6-1.7l-6.9-10.2l-2.7,1.8L29.2,22.1z M21.5,30l2-2.1l-2.2-2.3l-0.5-2
			l4.9,2.3l2.1-2.2l-7.8-3.8l-1.3-4.5L17,17.2l1.5,5.4l-3.6-3.5l-2,2L21.5,30z M7.1,54.6l2.8,0.3l0.2-1.5c-0.2-0.6-0.6-1-1.2-1.1
			c-0.7-0.2-1.4,0.3-1.6,0.9L7.1,54.6z M2.3,54l2.5,0.3L4.9,53c0-0.6-0.5-1.1-1.2-1.2c-0.6,0-1.2,0.3-1.4,1L2.3,54z M0,56.8
			l12.1,1.3l0.6-5.8c0-1.6-1.1-2.9-2.6-3.1c-1.6-0.3-3.1,0.5-3.7,2c-0.3-1.4-1.6-2.5-3-2.4c-1.5,0.1-2.7,1.1-2.8,2.6L0,56.8z
			 M7.8,79.1l-0.5-2.5c-0.3,0-0.6,0.1-0.8,0.1c-0.2,0-0.5,0-0.7,0l0,0c-0.6,0-1.1-0.4-1.2-1c-0.1-0.5,0.2-1.1,0.6-1.4
			c0.9-0.5,1.9-0.8,2.9-1.2c1-0.3,2-0.6,3.1-0.8c0.5,0,1,0.3,1.2,0.8c0.1,0.4,0,0.8-0.3,1.1c-0.2,0.2-0.5,0.5-0.8,0.6
			c-0.2,0.2-0.5,0.3-0.6,0.5l0.9,2.6c0.4-0.2,0.8-0.5,1.2-0.7c0.4-0.3,0.8-0.6,1.2-1c0.9-1.1,1.2-2.6,0.7-4
			c-0.5-1.2-1.6-2.2-2.8-2.5c-1.6-0.2-3.2-0.1-4.7,0.4c-1.6,0.6-3,1.4-4.1,2.6c-0.9,1.1-1.1,2.6-0.6,4c0.4,1.1,1.4,2,2.6,2.3
			c0.5,0.2,1,0.2,1.5,0.2C6.8,79.2,7.3,79.2,7.8,79.1z M108.8,64c-0.6,0-1.1-0.5-1.1-1.1c0-0.6,0.5-1.1,1.1-1.1
			c0.6,0,1.1,0.5,1.1,1.1C110,63.5,109.4,64,108.8,64z M100,72.9l11.9,3.6l2.3-6.9l-2.3-0.7l-1.2,3.8l-9.9-2.8L100,72.9z M98.3,77.9
			l11.4,4.7l1.3-2.9l-11.5-4.8L98.3,77.9z M100.2,84.6l1.4-2.6c-0.3-0.2-0.6-0.3-0.9-0.5c-0.3-0.1-0.6-0.2-1-0.3
			c-1.3-0.2-2.6,0.1-3.6,1c-1.3,1.1-1.7,3-1,4.6c0.8,1.4,1.9,2.5,3.2,3.4c1.3,0.9,2.8,1.5,4.4,1.7c1.4,0,2.8-0.7,3.6-1.9
			c0.9-1.4,0.9-3.1,0.1-4.5c-0.2-0.3-0.5-0.6-0.7-0.8c-0.3-0.3-0.6-0.5-0.9-0.7l-1.5,2c0.2,0.1,0.3,0.3,0.5,0.4
			c0.2,0.2,0.4,0.4,0.6,0.6c0.4,0.5,0.4,1.1,0.1,1.6c-0.3,0.5-0.9,0.6-1.5,0.5c-0.9-0.4-1.8-0.9-2.7-1.4c-1-0.6-1.9-1.3-2.8-2.2
			c-0.2-0.3-0.2-0.8,0-1.1c0.2-0.3,0.6-0.5,0.9-0.6c0.3,0.1,0.6,0.2,1,0.3S99.9,84.5,100.2,84.6z M95.4,102.4l2-2L93,96l6.7,2
			l1.7-1.7l-8.8-9l-1.8,1.8l4,4.1l-6.2-1.9l-2.1,2L95.4,102.4z M78.9,99.4l5.3,7.8c0.2,0.3,0.4,0.5,0.6,0.6c0.3,0.2,0.6,0.4,0.9,0.5
			c1.4,0.4,2.8,0.1,4-0.8c0.8-0.7,1.4-1.7,1.6-2.7c0.1-0.4,0-0.8,0-1.2c-0.1-0.4-0.2-0.7-0.4-1.1l-5.3-7.9l-2.1,1.6l5.3,7.5
			c0.3,0.6,0.2,1.4-0.5,1.8c-0.6,0.3-1.3,0.2-1.7-0.3l-5.1-7.6L78.9,99.4z M74.5,112.4c1.2,1.1,2.9,1.2,4.3,0.6c1.2-0.5,2-1.7,2.2-3
			c0.2-1.6,0-3.3-0.6-4.8c-0.5-1.3-1.3-2.5-2.4-3.5c-1.1-0.9-2.6-1.2-4-0.7c-1.4,0.5-2.3,1.7-2.6,3.2c-0.1,1.7,0.2,3.3,0.8,4.8
			C72.9,110.4,73.7,111.4,74.5,112.4z M76.5,110.6c0.3,0.3,0.8,0.4,1.2,0.2c0.4-0.2,0.7-0.5,0.7-1c-0.2-1.1-0.5-2.1-0.9-3.1
			c-0.4-1.1-0.9-2.1-1.4-3.1c-0.4-0.4-0.8-0.5-1.2-0.3c-0.5,0.2-0.8,0.6-0.8,1.1c0.2,1.2,0.6,2.4,1,3.5
			C75.6,108.9,76,109.7,76.5,110.6z M67.2,108.1l2.6-0.6l-0.4-1.3c-0.2-0.3-0.3-0.6-0.5-1c-0.8-1.1-2-1.7-3.4-1.6
			c-1.5,0.1-2.8,1-3.3,2.4c-0.4,1.1-0.6,2.2-0.6,3.3c0,2,0.7,4,1.9,5.7c0.9,1.2,2.4,1.7,3.9,1.4c1.6-0.3,2.8-1.4,3.2-3
			c0-0.3,0.1-0.7,0.1-1.1c0-0.4,0-0.8,0-1.2l-2.4,0.2c0,0.4,0,0.8,0,1.2c0,0.3-0.1,0.5-0.1,0.7c-0.2,0.5-0.7,0.8-1.2,0.8
			c-0.6,0-1-0.3-1.2-0.9c-0.3-1-0.6-2.1-0.8-3.2l-0.3-3.1c0-0.4,0.4-0.8,0.8-0.9c0.3-0.1,0.6,0,0.9,0.2c0.2,0.2,0.3,0.5,0.5,0.7
			C66.9,107.4,67.1,107.8,67.2,108.1z M44.3,115.2l2.8,0.6l1.1-5l4.8-6.6l-2.5-0.5l-2.8,4.1l-0.7-4.7l-2.9-0.7l1.4,7.9L44.3,115.2z
			 M32.5,110.7l2.6,1.3l4.3-9.1l2.3,1.1l0.9-2.2l-7.3-3.6l-1.1,2.1l2.4,1.2L32.5,110.7z M20.3,102.7l7.4-10.3l2.1,1.7l-0.5,5.9
			l3.1-4.1l1.9,1.5L27,107.7l-1.8-1.3l0.9-7.2l-3.8,4.9L20.3,102.7z M20.4,85.5l-7,6.5c-0.3,0.3-0.5,0.6-0.7,1
			c-0.1,0.3-0.2,0.6-0.3,0.9c-0.2,1.3,0.3,2.6,1.2,3.7c0.8,0.8,1.8,1.2,2.8,1.3c0.3,0,0.6,0,0.9,0c0.5-0.2,1-0.3,1.4-0.6l7.2-6.8
			l-1.9-1.9l-6.7,6.2c-0.5,0.4-1.1,0.5-1.6,0.1c-0.5-0.4-0.6-1-0.3-1.6l6.9-6.5L20.4,85.5z M10,89.2c1.8-0.1,3.5-0.6,5-1.5
			c1.3-0.8,2.4-1.9,3.3-3.1c0.5-1.2,0.5-2.6-0.1-3.8c-0.7-1.3-2-2.2-3.4-2.3c-1.9,0-3.7,0.6-5.3,1.6c-1.1,0.7-2.1,1.6-2.8,2.6
			c-0.9,1.5-0.9,3.4,0.2,4.8C7.6,88.5,8.7,89.1,10,89.2z M10,86.4c1.1-0.3,2-0.8,3-1.3c1.1-0.6,2-1.3,3-2.1c0.2-0.3,0.2-0.7,0-1
			c-0.2-0.4-0.7-0.6-1.1-0.6c-1.2,0.4-2.4,0.9-3.4,1.4c-0.8,0.5-1.6,1-2.3,1.6c-0.4,0.4-0.4,1-0.1,1.5C9.2,86.2,9.5,86.4,10,86.4z
			 M5.5,64.3c-0.6,0-1.1-0.5-1.1-1.1c0-0.6,0.5-1.1,1.1-1.1c0.6,0,1.1,0.5,1.1,1.1C6.6,63.8,6.1,64.3,5.5,64.3z"/>
		<path class="st3" d="M57.5,18.4c-22,0-39.9,17.9-39.9,39.9c0,22,17.8,39.9,39.9,39.9c22,0,39.9-17.9,39.9-39.9
			C97.4,36.2,79.5,18.4,57.5,18.4z M84.6,40.2c0,0.3,0,0.7-0.1,1c0,0.2-0.2,0.2-0.3,0.2c-0.1,0-0.3,0-0.4-0.2c0,0,0-0.1,0-0.2
			c0-0.1,0-0.2,0-0.3l-0.2-0.6c0-0.2-0.2-0.3-0.4-0.3c-0.2,0-0.3,0.1-0.4,0.2l-2.3,1c0.2-0.5,0.2-1,0.3-1.5c0-0.4,0.1-0.9,0.1-1.3
			c0.1,0,0.2-0.1,0.3-0.2c0.1,0,0.2-0.1,0.2-0.2c0.5,0.3,1,0.5,1.6,0.6c0.5,0.2,1,0.3,1.5,0.4C84.6,39.3,84.6,39.7,84.6,40.2z
			 M80.7,36.9c0-0.2,0.2-0.3,0.3-0.3c0.2,0,0.3,0.2,0.3,0.3c0,0.2-0.2,0.3-0.3,0.3C80.8,37.2,80.7,37.1,80.7,36.9z M66.8,32.7
			c0.3-1.6,1.3-2.9,2.7-3.7c1.2-0.8,2.6-1,4-0.8c2.2,0.4,4.4,1.4,6.1,2.8c2.3,1.9,3.9,4.7,4.5,7.6c-0.4-0.1-0.9-0.2-1.2-0.3
			c-0.5-0.2-0.9-0.4-1.4-0.6c0-0.3,0-0.6-0.1-0.8c-0.1-0.3-0.3-0.5-0.6-0.7c-0.2-0.1-0.4,0-0.6,0.1c-0.2,0.1-0.3,0.3-0.3,0.5
			c-0.1,0.2-0.1,0.4,0,0.6c0.1,0.3,0.2,0.6,0.5,0.8c0,0.6,0,1.1-0.1,1.6c-0.1,0.5-0.2,0.9-0.3,1.4c-0.7-0.6-1.3-1.2-1.8-2
			c-0.7-1-1.2-2-1.6-3.2c-0.1-0.9-0.5-1.8-0.9-2.6c-0.3-0.4-0.6-0.8-0.9-1.1c-0.8-0.5-1.7-0.6-2.6-0.2c-0.8,0.4-1.4,1.2-1.4,2.2
			c0,0.9,0.2,1.9,0.4,2.8c0.3,1.4,0.8,2.6,1.5,3.9l3.3,5.4l0,0.4c0.6,0.1,0.5,1-0.1,1c-0.5,0-0.7-0.9-0.2-1c0.3-0.1-0.4-0.7-0.7-0.8
			c-0.3-0.2-0.7-0.2-1-0.2c0-0.1,0-0.3-0.1-0.4c-0.1-0.2-0.3-0.4-0.6-0.4c-0.2,0-0.4,0-0.6-0.1c-0.2-0.1-0.5-0.2-0.6-0.5
			c0,0.3,0,0.6-0.1,0.9c-0.2,0.3-0.3,0.5-0.6,0.7c0,0.2,0,0.2,0,0.3c0,0.2,0.1,0.2,0.2,0.3c-0.3,0.2-0.5,0.5-0.6,0.8
			c-0.2,0.4-0.1,0.9,0.1,1.3c0.6,0,0.7,0.9,0,1c-0.5,0.1-0.8-0.4-0.5-0.8c-1-2.1-1.9-4.3-2.7-6.5c-0.1-0.3-0.2-0.5-0.3-0.7
			c-0.5-1.7-0.8-3.4-0.9-5.1C66.6,35.2,66.7,33.9,66.8,32.7z M79.3,51c0-0.3-0.2-0.8-0.3-0.8l0.3-0.2c0.2,0.3,0.3,0.7,0.3,1
			c0,0.4,0,0.9-0.2,1.2l-0.1-0.6C79.3,51.5,79.3,51.3,79.3,51z M79.5,55.4c0.2,0.3,0.3,0.7,0.3,1.1c0,0.4-0.1,0.9-0.3,1.2
			c-0.1-0.2-0.3-0.3-0.4-0.3c-0.2,0-0.3,0.2-0.4,0.3l-0.1,0c-0.2-0.3-0.3-0.6-0.3-1c0-0.3,0.2-0.7,0.3-0.9c0.1,0.2,0.3,0.2,0.5,0.2
			C79.4,55.9,79.6,55.7,79.5,55.4z M79.4,54.3c0.6,0.5,1,1.2,1.1,2.1c0,0.9-0.3,1.7-0.9,2.3l0-0.5c0.3-0.4,0.5-1,0.6-1.6
			c0-0.6-0.2-1.3-0.6-1.7L79.4,54.3z M79.6,63.3c0,0.3-0.1,0.6-0.2,0.9c-0.1-0.2-0.3-0.2-0.5-0.2c-0.2,0-0.3,0.1-0.5,0.2
			c-0.2-0.3-0.3-0.6-0.3-0.9c0-0.3,0.1-0.6,0.3-0.8c0.1,0.2,0.3,0.3,0.5,0.3c0.2,0,0.4-0.2,0.4-0.5C79.5,62.5,79.6,62.9,79.6,63.3z
			 M79.4,61.7l0.1-0.6c0.7,0.6,1.1,1.4,1,2.3c0,0.8-0.5,1.5-1.1,2v-0.6c0.3-0.4,0.5-0.9,0.6-1.4C80,62.7,79.8,62.2,79.4,61.7z
			 M78.2,64.6l0,0.7c-0.5-0.5-0.9-1.3-1-2.1c0-0.7,0.4-1.5,1.1-2l0,0.6c-0.3,0.4-0.4,0.9-0.4,1.3C77.8,63.7,77.9,64.2,78.2,64.6z
			 M78.6,62.1l0.2-4.2c0-0.1,0.1-0.1,0.2-0.1c0.1,0,0.2,0.1,0.2,0.2l-0.2,4.2c-0.1,0.1-0.2,0.2-0.2,0.2
			C78.7,62.3,78.7,62.2,78.6,62.1z M78.4,58.1v0.5c-0.6-0.5-0.9-1.2-1-2c0-0.8,0.3-1.6,1-2l0.1,0.6c-0.3,0.4-0.5,0.9-0.5,1.4
			C77.9,57.2,78.1,57.7,78.4,58.1z M78.9,55.3c-0.1,0-0.2,0-0.2-0.1l-0.3-3.7c0-0.1,0.1-0.2,0.2-0.2c0.1,0,0.2,0,0.3,0.1l0.3,3.7
			C79.1,55.3,79,55.3,78.9,55.3z M78.3,51.8c-0.2,0-0.4-0.1-0.6-0.2c-0.2-0.1-0.4-0.2-0.5-0.4l1.7-0.8c0,0,0.1,0.3,0.1,0.5
			c0,0.2,0,0.3,0,0.4c-0.2-0.1-0.3-0.1-0.5,0C78.3,51.4,78.2,51.6,78.3,51.8z M66.7,48l0.8,0.1c0.3,0.1,0.6,0.2,0.9,0.3
			c0.2,0.1,0.3,0.2,0.4,0.3c0.1,0.2,0.2,0.3,0.2,0.5c0.1-0.2,0.3-0.4,0.5-0.5c0.2-0.1,0.4-0.1,0.6,0c-0.3,0.8,0.5,1.5,1.2,1.1
			c0.7-0.3,0.6-1.3-0.1-1.6c-0.2-0.3-0.1-0.7,0.1-1c0.2-0.4,0.5-0.6,0.9-0.6l0-0.3h-0.4c-0.1,0-0.2,0-0.2-0.2c0-0.1,0-0.2,0.1-0.2
			c0.2-0.2,0.3-0.3,0.4-0.5c0.1-0.2,0.2-0.4,0.2-0.6c0.2,0.2,0.3,0.3,0.6,0.3h0.4c0.1,0,0.2,0,0.2,0.1c0,0,0,0.1,0.1,0.2
			c0,0.1,0,0.2,0,0.3l-0.3,0.3l0.2,0.2c0.3-0.2,0.6-0.2,1-0.1c0.3,0.1,0.6,0.3,0.7,0.5c-0.5,0.6,0,1.6,0.9,1.4
			c0.7-0.2,0.9-1.2,0.2-1.6c0-0.2,0.2-0.3,0.3-0.4c0.2-0.2,0.5-0.2,0.7-0.1c-0.1-0.2-0.1-0.5,0-0.7c0.1-0.2,0.3-0.4,0.5-0.5
			c0.2-0.1,0.3-0.2,0.4-0.3c0.2-0.2,0.3-0.4,0.3-0.6l0.5,4.3l-0.7,0.5c-0.2-0.1-0.5-0.2-0.8-0.3c-0.3-0.1-0.6-0.2-0.9-0.1
			c-0.3,0-0.6,0.1-0.8,0.3c-0.3,0.2-0.3,0.4-0.4,0.6c0,0.2,0,0.7,0,0.8l-1.7,0.6c-0.3-0.5-0.9-0.8-1.5-0.6c-0.6,0.2-1,0.8-0.9,1.4
			l-1.7,0.4L66.7,48z M69,51.3c-0.2,0.1-0.3,0-0.5-0.2c-0.1-0.1-0.1-0.3,0-0.4L69,51.3z M67.9,49.9c-0.1,0-0.2,0-0.3-0.1
			c-0.1-0.1-0.1-0.3-0.1-0.4L67.9,49.9z M79,46L79,45.2c0.2,0,0.3,0.2,0.3,0.3C79.2,45.8,79.2,45.9,79,46z M79.3,47.1
			c0,0.2,0,0.3-0.2,0.4l-0.1-0.6C79.2,46.9,79.3,46.9,79.3,47.1z M77.1,48.9c-0.2,0-0.3,0-0.5,0c-0.1,0-0.2,0.1-0.3,0.1
			c-0.1,0.1-0.2,0.2-0.2,0.2l-0.1,0.3v0.2l-0.3,0.2c0-0.2,0-0.3,0-0.5c0-0.1,0-0.2,0.1-0.2c0-0.2,0.2-0.2,0.3-0.3
			c0.1-0.1,0.5-0.2,0.6-0.2c0.1,0,0.2,0,0.4,0s0.6,0.2,0.8,0.3L77.4,49C77.3,49.1,77.3,49,77.1,48.9z M77.2,49.2l-0.8,0.3
			c0-0.2,0-0.3,0.2-0.4c0.2,0,0.3,0,0.4,0L77.2,49.2z M78.2,49l0.8,0.7l-0.4,0.2l-0.8-0.7L78.2,49z M73.4,50.7
			c-0.3,0.1-0.6,0.2-0.8,0.3c-0.3,0.1-0.5,0.2-0.8,0.2c-0.1-0.4,0.2-0.8,0.5-1C72.8,50.2,73.2,50.3,73.4,50.7z M70.1,52
			c1.2-0.3,2.4-0.6,3.6-1c1.4-0.5,2.7-1,4-1.7l0.8,0.7c-1.1,0.6-2.2,1.2-3.3,1.7L70.6,53c-0.3,0.1-0.6-0.1-0.7-0.5
			C69.9,52.3,70,52.1,70.1,52z M76.7,51.2c0.2,0.2,0.5,0.5,0.7,0.6c0.2,0.1,0.5,0.3,0.8,0.3l0,0.3c-0.3,0-0.7-0.2-1-0.3
			c-0.3-0.2-0.6-0.5-0.9-0.7L76.7,51.2z M79.3,49.6c-0.2-0.1-0.3-0.3-0.4-0.3c-0.1-0.1-0.2-0.2-0.4-0.4l0.8-0.5c0.2,0,0.3,0,0.4,0.2
			c0.2,0.2,0.3,0.4,0.1,0.7L79.3,49.6z M63,35.4c0.7,0.9,1.1,2,1.1,3.1l-0.6,7.7c-0.1,1.4,0,2.8,0.2,4.2c0.2,1.3,0.6,2.5,1.1,3.7
			c0.2,0.5,0.6,0.9,1,1.3l1.7,1.1c-0.3,0.1-0.6,0.1-0.8,0.1c-0.3,0-0.5,0-0.8-0.2c-1-0.3-1.9-0.9-2.6-1.7c-1.2-1.2-1.9-2.8-2-4.5
			c-0.1-1.2-0.2-2.4-0.2-3.6c-0.1-1.1-0.1-2.2,0-3.3l0.3-6.2c0-0.5-0.1-1.1-0.2-1.7c-0.1-0.5-0.2-1-0.4-1.6
			C61.7,34.1,62.4,34.6,63,35.4z M39.1,72.1c0.3-0.2,0.6-0.3,1-0.3c0.3-0.1,0.6-0.1,0.9,0l0-0.3c-0.2,0-0.3-0.1-0.5-0.1
			c-0.2,0-0.5,0-0.6,0.2c-1.1,0.3-2.3,0.5-3.4,0.7c-1.1,0.2-2.2,0.3-3.3,0.2v0c-0.3,0-0.5-0.1-0.8-0.2c-0.3-0.1-0.6-0.3-0.8-0.6
			c-0.1-0.3,0-0.7,0.3-1c0.1-0.1,0.3-0.2,0.5-0.3l9.3-4.8h0c0.5-0.3,1-0.5,1.6-0.7c0.5-0.2,1-0.3,1.5-0.5c0,0.3,0.1,0.5,0.2,0.7
			c0.1,0.2,0.2,0.5,0.3,0.6l-0.3,1.5c-1,0.3-1.7,1.2-1.9,2.2c-0.1,1.1,0.3,2.1,1.2,2.6L44.4,74l-0.6,0.4c-0.8-0.3-1.6-0.6-2.3-1
			C40.7,73,39.9,72.6,39.1,72.1z M54.6,56.8c-0.2,0.8-0.6,1.6-1,2.2v0c-0.4-0.2-0.6-0.5-0.9-0.9c-0.3-0.3-0.5-0.7-0.6-1.2
			c0.5-1.2,0.9-2.4,1.1-3.7c0.3-1.5,0.5-3,0.6-4.4l0.5,0c-0.2,1.2-0.2,2.4,0.1,3.6c0.1,0.6,0.3,1.2,0.5,1.8
			C55,55.1,54.9,56,54.6,56.8z M55.2,54.8l1.1,1.6l-0.5,3.8c-0.3-0.2-0.6-0.4-0.9-0.7c-0.3-0.3-0.5-0.6-0.6-0.9
			c0.2-0.5,0.4-1.1,0.6-1.6C55,56.4,55.2,55.6,55.2,54.8z M44.7,75.4c-0.1,0-0.2-0.1-0.2-0.2l0.3-4.5c0-0.1,0.2-0.1,0.3-0.1
			c0.1,0,0.1,0,0.2,0.1L45,75.2C44.9,75.4,44.8,75.4,44.7,75.4z M44.9,77.4l-0.1,4.5C44.7,82,44.6,82,44.6,82
			c-0.1,0-0.2-0.1-0.2-0.2l0.1-4.3c0-0.1,0.1-0.2,0.2-0.2C44.7,77.3,44.8,77.4,44.9,77.4z M43.6,69.4c0.1-0.9,0.6-1.6,1.4-1.9
			L44.9,68c-0.4,0.4-0.7,0.9-0.7,1.6c0,0.5,0.1,0.9,0.3,1.4l-0.1,0.5C43.9,70.9,43.6,70.1,43.6,69.4z M45.1,70.1
			c-0.2,0-0.5,0.1-0.5,0.3l-0.1-0.8c0-0.5,0.2-0.8,0.4-1.2c0,0.2,0.2,0.3,0.3,0.4c0.2,0,0.3,0,0.5-0.2c0.2,0.4,0.2,0.7,0.2,1.1
			c0,0.3-0.2,0.6-0.4,0.9C45.5,70.4,45.3,70.1,45.1,70.1z M45.5,71.1c0.4-0.3,0.7-0.8,0.8-1.4c0.1-0.6-0.1-1.2-0.5-1.6l0.2-0.4
			c0.5,0.6,0.7,1.4,0.6,2.1c-0.1,0.7-0.5,1.4-1.1,1.7L45.5,71.1z M45.5,68.4c-0.1,0-0.2,0.1-0.2,0.1c-0.1,0-0.2,0-0.2-0.1l0.8-4
			c0.1-0.1,0.2-0.1,0.2-0.1c0,0,0.1,0,0.2,0.1L45.5,68.4z M46.1,62.8c-0.4,0.5-0.6,1.1-0.5,1.7L45.5,65c-0.5-0.9-0.4-1.9,0.2-2.6
			c0.6-0.8,1.7-1.1,2.7-0.7L48.1,62C47.3,61.9,46.6,62.2,46.1,62.8z M39.6,57.8c0,0.2,0,0.4-0.1,0.6c0,0.2-0.1,0.3-0.2,0.4
			c-0.1,0.1-0.3,0.1-0.4,0c-0.1-0.1-0.2-0.2-0.1-0.3c0.2-0.3,0.3-0.6,0.5-0.9c0.2-0.3,0.5-0.7,0.8-1l5.3-8.6
			c0.4-0.1,0.8-0.2,1.2-0.5c0.6-0.3,1.1-0.6,1.6-1c0.3,0.2,0.6,0.2,0.9,0.2c0.3,0,0.6,0.1,1,0c-0.5,0.7-1.1,1.6-1.6,2.3
			c-0.6,1.1-1.2,2.1-1.7,3.2c-0.6,1.7-1.4,3.3-2.3,4.8c-1,1.7-2.2,3.2-3.5,4.6c-0.2,0.2-0.5,0.2-0.8,0.2c-0.3-0.2-0.4-0.4-0.4-0.7
			c0-0.2-0.1-0.5-0.1-0.7c0-0.2,0-0.5-0.1-0.8l0-1.9L39.6,57.8z M37.4,59.5c-1,1.1-2.1,2.1-3.3,3c-0.2,0.1-0.5,0.1-0.7,0
			c-0.2-0.1-0.3-0.3-0.3-0.5c0-0.7,0-1.4,0-2.2c0.1-0.6,0.2-1.2,0.3-1.9c1.1-0.6,2-1.2,3-1.9c0.9-0.8,1.8-1.7,2.6-2.6l4-5.6
			c0.3,0.1,0.6,0.1,0.9,0.1c0.3,0,0.8,0,1.1-0.1L40,56.2C39.2,57.3,38.3,58.5,37.4,59.5z M43.9,58.8c0.6-0.9,1.4-2.1,1.9-3.2
			c0.6-1.1,1.1-2.2,1.6-3.3c0.5-1.1,1-2.2,1.6-3.2c0.5-0.7,0.9-1.4,1.4-2.2l1.2,0.4c-0.4,2.1-0.9,4.1-1.7,6.1
			c-0.8,2.3-1.9,4.5-3.1,6.5c-0.2,0.2-0.3,0.3-0.6,0.2c-0.2,0-0.3-0.2-0.4-0.3c-0.2-0.2-0.3-0.5-0.3-0.8c-0.1-0.3-0.2-0.7-0.2-1.1
			c0,0.3-0.3,0.7-0.6,0.8C44.4,59,43.8,59,43.9,58.8z M51.8,47.8c0.2,0.3,0.5,0.6,0.9,0.8l0.9,0.3c0,1.3-0.2,2.6-0.5,3.9
			c-0.4,2-1.1,3.9-2.1,5.7c-0.1,0.1-0.2,0.1-0.3,0.1c-0.2,0-0.2-0.1-0.3-0.2c-0.2-0.2-0.5-0.5-0.6-0.8c-0.2-0.3-0.3-0.7-0.3-1
			c0-0.2,0-0.3,0-0.5c0-0.2,0-0.3,0.1-0.5c0.4-1.2,0.8-2.5,1.2-3.7C51.1,50.5,51.4,49.2,51.8,47.8z M46.5,64.8
			c0.4-0.1,0.8-0.3,1.1-0.6c0.3-0.3,0.6-0.8,0.6-1.3l0.5-0.1c0,0.7-0.3,1.3-0.8,1.8c-0.4,0.4-1,0.6-1.6,0.7L46.5,64.8z M46.5,63.8
			l1.1-0.3c-0.1,0.2-0.2,0.5-0.4,0.6c-0.2,0.2-0.4,0.3-0.6,0.3c0-0.1,0-0.3,0-0.4C46.5,64,46.5,63.9,46.5,63.8z M47.8,62.8
			c-0.1,0-0.2,0-0.2-0.2c0-0.1,0-0.1,0-0.2l3.6-1.3c0.1,0,0.2,0,0.2,0.1c0,0.1,0,0.2,0,0.2L47.8,62.8z M51,60.5
			c-0.1,0-0.2,0.2-0.2,0.2c0,0.1-0.1,0.2-0.1,0.2h-0.4c0-0.2,0.1-0.3,0.2-0.4c0.1-0.2,0.2-0.2,0.3-0.3c0.5-0.2,0.9-0.2,1.4-0.1
			c0.4,0.1,0.7,0.3,1,0.6l-0.5,0.3c-0.2-0.2-0.4-0.3-0.7-0.3C51.7,60.5,51.4,60.4,51,60.5z M54.5,48.4c-0.3,0.1-0.6,0-0.9,0
			c-0.6-0.1-1.1-0.4-1.4-0.9c0.2,0,0.6-0.2,0.8-0.3c0.2-0.1,0.9-0.6,1.1-0.7l1-0.9L54.5,48.4z M53.3,46.5c-0.4,0.4-0.8,0.5-1.2,0.5
			c-0.5,0-1-0.1-1.4-0.3c-0.1,0-0.1-0.1-0.1-0.2c0,0,0-0.2,0-0.2c0.6-0.2,0.9-0.3,1.3-0.6c0.9-0.5,1.4-1.2,2-2
			c0.2-0.3,0.6-0.6,0.9-0.9c0.2-0.2,0.4-0.3,0.6-0.4L55,45.1L53.3,46.5z M55.2,42.2c-0.2,0.1-0.3,0.2-0.4,0.3
			c-0.3,0.2-0.6,0.4-0.8,0.6c-0.7,1-1.5,1.8-2.5,2.4c-0.4,0.3-0.8,0.5-1.3,0.6c-0.5,0.1-1.4-0.1-1.4-0.1l4.7-4.9
			c0.3-0.3,0.7-0.5,1.1-0.8c0.3-0.2,0.6-0.3,0.9-0.4c0,0.3,0.1,0.7,0.1,1c0,0.3,0,0.6,0,0.9C55.4,42.1,55.3,42.1,55.2,42.2z
			 M54.5,39.9c-0.5,0.3-0.8,0.5-1.2,0.9L48.2,46c-0.8,0.6-1.7,1.1-2.7,1.3c-1,0.2-2,0.3-3,0.2c0.2-0.1,0.5-0.2,0.8-0.4
			c0.3-0.2,0.5-0.4,0.8-0.6l2.9-3.2l3.3-3.7c0.7-0.6,1.5-1.2,2.4-1.7c0.6-0.3,1.4-0.6,2.1-0.8c0.2,0.3,0.3,0.8,0.5,1.1l0.3,1.3
			C55.2,39.6,54.8,39.7,54.5,39.9z M52.5,37.5c-0.8,0.5-1.8,0.9-2.5,1.6l-3.3,3.6L43.6,46c-1.1,1.1-2.4,1.9-4,2
			c-0.7,0-1.4,0-2.1-0.1l0.5-1.6c0.3-0.8,0.6-1.5,1-2.2c0.4,0,0.8-0.2,1.1-0.3c0.4-0.2,0.8-0.5,1.1-0.8l5.1-4.9
			c0.9-0.7,1.9-1.2,3-1.5c1.7-0.5,3.4-0.4,5,0.1C53.8,36.9,53.1,37.2,52.5,37.5z M39.6,48.6c0.8-0.1,1.6-0.4,2.2-0.8l0.7,0.2
			l-3.8,5.4c-0.8,0.9-1.7,1.8-2.6,2.5c-0.9,0.8-2,1.4-3,1.9c-0.2,0-0.3,0-0.4-0.1c-0.1-0.1-0.1-0.2-0.1-0.3c0.3-0.5,0.5-0.9,0.8-1.4
			c0.3-0.6,0.5-1.2,0.8-1.9c0.6-0.6,1.2-1.2,1.6-2c0.8-1.1,1.3-2.3,1.7-3.6C38.1,48.6,38.8,48.7,39.6,48.6z M44.2,77.6l-0.1,0.6
			c-0.6-0.4-1-1.1-1.1-1.9c0-0.9,0.4-1.7,1.2-2.2v0.6c-0.3,0.4-0.6,0.9-0.6,1.4C43.7,76.7,43.9,77.2,44.2,77.6z M46,83.3
			c-0.1,0.6-0.5,1.2-0.9,1.6c-0.2,0-0.4,0.1-0.6,0.1c-0.3,0-0.6-0.1-0.8-0.3c-0.5-0.4-0.8-1-0.8-1.6c0-0.8,0.3-1.6,1-2l0.2,0.4
			c-0.4,0.5-0.6,1-0.6,1.6c0.1,0.5,0.2,0.9,0.5,1.2c0.1,0.2,0.4,0.3,0.6,0.3c0.1,0,0.3-0.1,0.3-0.2c0.3-0.3,0.5-0.8,0.6-1.3
			c0-0.5-0.1-1-0.3-1.4l0.1-0.5C45.8,81.7,46.1,82.5,46,83.3z M45.1,78.2l0-0.6c0.3-0.3,0.5-0.9,0.5-1.4c0-0.5-0.2-1.1-0.5-1.4
			l0-0.4c0.6,0.4,1.1,1.1,1.1,1.9C46.3,77.1,45.8,77.9,45.1,78.2z M55.7,76.4c0.1-0.3,0.3-0.5,0.6-0.6l-0.3-0.3
			c-0.3,0.2-0.5,0.4-0.6,0.7c-0.1,0.2-0.1,0.3-0.1,0.5l0.2,1c-0.8-0.6-1.7-1-2.6-1.4c-1.1-0.5-2.3-0.7-3.5-0.8
			c-0.5,0-1.1-0.1-1.6-0.2c-0.5-0.1-0.9-0.2-1.4-0.2c-0.2-0.3-0.3-0.6-0.6-0.9c-0.2-0.2-0.4-0.3-0.5-0.5l0.2-1.9
			c0.9-0.4,1.4-1.2,1.6-2.1c0.1-0.9-0.3-1.9-1-2.5l0.4-1.7c0.6,0,1.3-0.3,1.8-0.8c0.5-0.4,0.8-1,0.8-1.6l0.5-0.2
			c0.9-0.5,1.8-1.1,2.7-1.5c0.8-0.4,1.8-0.8,2.7-1.2l1.1,0.8l0.2-1.2l0.5-0.2c0.2,0.4,0.4,0.7,0.6,0.9c0.3,0.3,0.6,0.5,0.9,0.7
			c0.2-0.3,0.3-0.8,0.3-1.1c0-0.3,0-0.6-0.1-1l3.3,3c0.3,0.9,0.9,1.7,1.6,2.3c0.8,0.6,1.7,1.1,2.7,1.2l0.4,0.1
			c0.2,0.1,0.3,0.2,0.5,0.2l0-0.3c-0.1-0.1-0.2-0.2-0.3-0.2c-0.1,0-0.3-0.1-0.3-0.1c-0.8-0.1-1.6-0.4-2.2-0.9
			c-0.8-0.5-1.4-1.2-1.7-2l2,1.4l0-0.3c-0.8-0.6-1.6-1.2-2.4-1.9c-0.7-0.6-1.5-1.3-2.2-1.9c-0.8-0.6-1.5-1.4-2.1-2.1
			c-0.6-0.7-1.2-1.6-1.7-2.4c-0.6-1.1-0.9-2.4-1.1-3.6c-0.2-1.2-0.1-2.3,0.2-3.5c0-2.4,1-5.6,1-6.1c0-0.8,0.1-1.7-0.1-2.6
			c-0.2-0.8-0.4-1.7-0.8-2.5c0.2,0.1,0.5,0.2,0.7,0.3c0.2,0.1,0.5,0.3,0.7,0.4l-0.2-0.5c-0.9-0.6-2-0.9-3.1-1.1
			c-1.3-0.2-2.6,0-3.8,0.2c-1.9,0.3-3.5,1.7-4.8,3.1c-1,1-1.7,1.8-2.6,2.6c-0.5,0.3-1.3,1.2-2,1.6c-0.7,0.3-1.4,0.6-2.2,0.6
			l-0.2,0.3c0.2,0,0.3,0,0.4,0c0.2,0,0.4-0.1,0.6-0.1c-0.3,0.5-0.6,1.1-0.8,1.6c-0.3,0.7-0.5,1.4-0.7,2.1c-0.3,1.3-0.7,2.6-1.4,3.7
			c-0.7,1.1-1.6,2.1-2.7,2.9c-0.3,0.2-0.6,0.3-0.9,0.4c-0.3,0.1-0.7,0.1-1,0.1l0,0.5c0.4,0,0.8,0,1.2,0c0.5-0.2,1-0.4,1.4-0.8
			c-0.6,1.7-1.6,3.3-2.9,4.6c-1.2,1.2-2.6,2.1-4.2,2.7c-0.2,0.1-0.3,0-0.4-0.1c-0.1-0.1-0.1-0.3,0-0.4c0.4-0.9,0.8-1.7,1.1-2.6
			c0.3-0.7,0.5-1.4,0.6-2.1c0.9-3,2.1-5.8,3.5-8.6c1.2-2.4,2.6-4.8,4.2-7c1-1.7,2.2-3.3,3.5-4.8c1.9-2.2,4.2-4.1,6.6-5.6
			c2.2-1.2,4.5-1.7,7-1.6c1.5,0.1,2.9,0.4,4.3,0.9c1.2,0.6,2.2,1.4,3,2.5c1,1.4,1.6,3.1,1.5,4.8l-0.3,6.1c0,1.1,0,2.3,0,3.4
			c0,1.2,0.1,2.3,0.2,3.5c0.1,1.7,0.8,3.3,1.9,4.6c1.3,1.4,3.1,2.3,5.1,2.4c0.5,0,1,0.1,1.4,0.2c0.4,0,0.9,0.2,1.3,0.3
			c0.3,0.2,0.6,0.3,0.9,0.5c0.2,0.1,0.3,0.2,0.5,0.3c0.1,0.1,0.2,0.2,0.3,0.2c0.1,0,0.2,0.1,0.3,0.1l0.2-0.3c-0.1,0-0.2,0-0.3-0.1
			c-0.1,0-0.2-0.1-0.2-0.2c-0.2-0.2-0.4-0.4-0.6-0.5c-0.2-0.2-0.5-0.3-0.8-0.4c-0.5-0.2-1-0.3-1.5-0.5c-0.5-0.1-1.1-0.2-1.7-0.2
			c0.9-0.2,1.8-0.7,2.5-1.5c0.5-0.6,0.9-1.4,0.9-2.2c1.2-0.2,2.4-0.6,3.6-1c0.5-0.2,0.9-0.3,1.3-0.6c0.3,0.3,0.6,0.6,1.1,0.9
			c0.3,0.2,0.8,0.3,1.2,0.4l0.1,1.2c-0.8,0.6-1.3,1.6-1.3,2.6c0,0.9,0.3,1.9,1.2,2.4l0,1.5c-0.8,0.5-1.4,1.4-1.4,2.4
			c0,1.1,0.4,2,1.2,2.6l0,1.6c-0.6,0.3-1,0.8-1.3,1.4c-0.3,0.7-0.4,1.4-0.2,2.1l0,0c-0.3,0.2-0.7,0.4-1,0.6
			c-0.6,0.3-1.2,0.5-1.9,0.6c-2.4,0.2-4.7,0.6-7,1.5c-2,0.8-3.9,1.8-5.6,3c-0.4,0.4-0.8,0.9-1.1,1.3c-0.3,0.4-0.5,0.8-0.7,1.2
			c-0.1,0.2-0.2,0.3-0.2,0.4c0,0.2,0,0.3,0.1,0.5c0,0.9-0.7,1.6-1.6,1.6c-1,0-1.7-0.9-1.5-1.9c0-0.3,0-0.6-0.1-0.9
			c-0.1-0.3-0.2-0.6-0.3-0.9C55.5,77.3,55.5,76.8,55.7,76.4z M56.7,57.1c0.2,0.3,0.4,0.5,0.6,0.8l0.8,0.8c0.2,0.4,0.2,0.8,0.2,1.2
			c0,0.3,0,0.5-0.2,0.8c-0.6-0.3-1.1-0.8-1.3-1.4C56.6,58.6,56.5,57.8,56.7,57.1z M77.6,71.2l-0.2,0.4c-0.5-0.6-0.6-1.4-0.5-2.2
			c0.2-0.8,0.6-1.4,1.3-1.7l-0.1,0.7c-0.3,0.3-0.6,0.8-0.7,1.2C77.3,70.1,77.3,70.6,77.6,71.2z M65.7,76.1c0-0.1,0-0.2,0.1-0.2
			c0,0,0.1,0,0.2,0l3.7,2.3c0.1,0,0.1,0.2,0,0.3c-0.1,0.1-0.2,0.1-0.3,0.1L65.7,76.1z M66.1,77c-0.5,0-0.9,0-1.3-0.2
			c-0.3-0.1-0.7-0.3-1-0.6l0.2-0.6c0.2,0.3,0.5,0.5,0.8,0.6c0.3,0.2,0.8,0.3,1.1,0.3L66.1,77z M65.9,74.3l0.5-0.3
			c0.2,0.3,0.3,0.6,0.4,0.9C67,75.3,67,75.7,67,76L66.6,76c-0.1-0.3-0.2-0.6-0.3-0.9C66.2,74.8,66.1,74.5,65.9,74.3z M69.7,77.7
			l-0.2-0.3c0.5-0.2,1.1-0.2,1.6,0c0.5,0.2,1.4,1,1.4,1l-0.3,0.1c-0.3-0.3-0.6-0.5-0.9-0.6C70.7,77.7,70.1,77.6,69.7,77.7z
			 M71.7,79.1l3.9-1.7c0,0,0.1,0,0.2,0.1c0,0,0,0.1,0,0.2l-4,1.7c-0.1,0-0.2,0-0.2-0.2C71.6,79.2,71.6,79.2,71.7,79.1z M75.7,75.7
			c-0.3,0.4-0.5,1-0.6,1.6l-0.3,0.2c-0.1-0.8,0.2-1.6,0.7-2.2c0.3-0.3,0.7-0.6,1.2-0.8l0.1,0.4C76.3,75,76,75.3,75.7,75.7z
			 M63.6,77.4c0,0.5-0.2,1.1-0.5,1.5l-1.4,0c-0.3-0.2-0.5-0.5-0.6-0.8c-0.1-0.4-0.1-0.8,0.1-1.2l2.5-1.6c0,0.2,0,0.3-0.1,0.5
			c-0.1,0.2-0.2,0.2-0.3,0.3C63.5,76.5,63.6,77,63.6,77.4z M62.1,89.8c-0.4,0.2-0.8,0.5-1.2,0.7c-0.2-0.2-0.5-0.3-0.7-0.5
			c-0.3-0.2-0.6-0.3-1-0.5L56,88.5c0.2-0.2,0.2-0.3,0.3-0.5c0-0.1,0.1-0.3,0.1-0.4l0.5-5.9l1.1,0.1l-0.2,4c0,0.6,0.3,1.2,0.7,1.6
			c0.4,0.5,1,0.7,1.6,0.8l0.1-0.2c-0.2,0-0.5-0.1-0.6-0.2c-0.2-0.1-0.4-0.3-0.6-0.4c0.8,0.2,1.5,0.3,2.3,0.3
			c0.6,0.1,1.2,0.2,1.8,0.3c0.1,0.2,0.2,0.3,0.3,0.5c0.2,0.2,0.5,0.5,0.7,0.7C63.4,89.3,62.7,89.4,62.1,89.8z M67.1,86.3
			c-0.3,0.1-0.6,0.3-0.8,0.5c-0.2-0.1-0.4-0.2-0.6-0.3c-0.3-0.1-0.5-0.1-0.8-0.2v-0.1l-4.4-0.8c0.2-0.1,0.3-0.2,0.5-0.4
			c0.2-0.2,0.3-0.4,0.3-0.6l0.4-5.3l1.1,0.1l-0.2,3.1c0,0.8,0.3,1.5,0.9,2c0.3,0.3,0.8,0.4,1.2,0.5v-0.2c-0.2-0.1-0.4-0.2-0.6-0.3
			c-0.2-0.1-0.4-0.2-0.5-0.4c0.5,0,1.1,0,1.6,0c0.3,0,0.7,0,1.1,0c0.2,0.3,0.5,0.6,0.7,0.9c0.3,0.4,0.8,0.7,1.3,0.9
			C67.9,86,67.5,86.1,67.1,86.3z M70.4,80.4c-0.9-0.3-1.6-1-1.8-1.9l0.5,0c0.2,0.6,0.7,1.1,1.3,1.3c0.8,0.3,1.6,0.2,2.2-0.2l0.3,0.2
			C72.3,80.5,71.3,80.7,70.4,80.4z M77.5,77.7c-0.5,0.5-1.2,0.8-1.9,0.8l0.2-0.5c0.5-0.1,1-0.4,1.3-0.8c0.6-0.6,0.8-1.5,0.5-2.4
			l0.3-0.2C78.5,75.6,78.2,76.9,77.5,77.7z M77.2,75.7c-0.1,0-0.2,0-0.2,0c-0.1,0-0.1-0.2-0.1-0.3l1.1-4.5c0.1,0,0.1-0.1,0.2-0.1
			c0.1,0,0.2,0.1,0.2,0.2L77.2,75.7z M77.8,69.7l0.3-0.9l0.2,0.3L77.8,69.7z M78.4,68.6l0.2-4.1c0-0.1,0.1-0.2,0.3-0.2
			c0.1,0,0.1,0,0.2,0.1l-0.2,4.3c0,0.1-0.2,0.1-0.2,0.1C78.5,68.7,78.4,68.7,78.4,68.6z M80,70c-0.2,0.8-0.6,1.4-1.3,1.7l-0.2-0.4
			c0.5-0.5,0.8-1,0.9-1.7c0.1-0.5,0-1.1-0.2-1.6l0.2-0.2C79.9,68.3,80.2,69.1,80,70z M82,60.7c-0.2,2.4-1.1,4.7-2.5,6.7l-0.3,0
			l0.1-1.7c0.9-0.5,1.4-1.4,1.4-2.4c0.1-1.1-0.5-2.1-1.3-2.7l0-1.5c0.9-0.6,1.4-1.6,1.4-2.6c0-1.1-0.6-2-1.5-2.6v0l0-1l0.6-0.6
			l0.6,1C81.7,55.6,82.2,58.1,82,60.7z M84.6,47.3c-0.2,0-0.4-0.1-0.5-0.3c-0.4-0.8-0.8-1.6-1.3-2.4c-0.6-1.1-1.4-2.2-2.1-3.2l1.9-1
			c0.1,0,0.2-0.1,0.3-0.1c0.1,0,0.2,0,0.2,0.1c0.2,0.2,0.3,0.4,0.4,0.6c0.1,0.3,0.2,0.6,0.2,0.9c0,0.6,0.1,1.3,0.3,2
			c0.2,0.9,0.4,1.9,0.8,2.8C84.9,47,84.8,47.2,84.6,47.3z"/>
	</g>
</g>
</svg>
