<svg width="115" height="117" viewBox="0 0 115 117" fill="none" xmlns="http://www.w3.org/2000/svg">
<g clip-path="url(#clip0)">
<path fill-rule="evenodd" clip-rule="evenodd" d="M101.978 50.7999L102.697 58.1435L105.044 57.9164L104.628 53.4875L107.202 53.2604L107.467 55.948L109.928 55.7587L109.625 53.0332L112.237 52.7683L112.653 57.1593L115.038 56.9322L114.356 49.5507L101.978 50.7999ZM107.278 41.6392L107.694 42.8127H107.656C107.997 43.3805 108.716 43.6455 109.322 43.4184C109.965 43.2291 110.344 42.5856 110.23 41.9421L109.928 40.8443L107.278 41.6392ZM99.4421 41.0714L100.351 44.1376L105.234 42.5856L105.461 43.3427L101.108 46.2574L102.054 49.2857L106.899 45.841C107.846 46.5981 109.133 46.8631 110.306 46.4845C112.085 45.9546 113.183 44.1376 112.804 42.3206L111.328 37.2482L99.4421 41.0714ZM97.3601 36.3397L98.6471 39.1409L109.625 33.7278L108.148 30.8509L97.3601 36.3397ZM91.1899 27.6333L93.0069 29.9802L96.9059 26.9898L98.3065 28.6554L94.3318 31.8351L96.2623 34.2577L105.802 26.4977L103.985 24.0372L100.199 27.0276L98.8364 25.3621L102.546 22.3338L100.805 19.8733L91.1899 27.6333ZM86.4203 18.3591C86.0418 19.0026 85.8147 19.7219 85.7768 20.4789C85.739 21.3117 85.8904 22.1445 86.3068 22.9394C87.1017 24.605 88.9944 25.4378 90.7735 24.9457C92.6662 24.4157 93.8776 22.4852 93.5369 20.5546L92.6662 17.1856C92.5905 16.845 92.7041 16.4664 92.9691 16.2014C93.234 15.9743 93.5747 15.8986 93.9154 16.0122C94.3697 16.2393 94.6725 16.6935 94.8239 17.1856C94.8996 17.6399 94.786 18.0941 94.5589 18.4348L96.6787 19.3055C97.0573 18.4727 97.133 17.4885 96.9816 16.6178C96.7544 15.7472 96.3002 14.9523 95.6567 14.3845C94.5968 13.4381 93.1583 13.2488 91.8713 13.8167C90.4329 14.4223 89.5622 15.8986 89.7515 17.4506L90.6221 21.4253C90.6221 21.9174 90.3193 22.3716 89.865 22.523C89.2594 22.7502 88.578 22.4095 88.3509 21.8417C88.2373 21.4631 88.1995 21.0846 88.1995 20.6682C88.1995 20.214 88.313 19.7597 88.5402 19.3055L86.4203 18.3591ZM73.2094 14.9144L75.7456 16.0122L78.9631 9.69058L77.2976 17.0342L78.6982 17.7535L83.5813 12.7189L80.4773 18.6619L82.8999 19.9868L88.843 9.23634L85.1712 7.23008L81.5372 11.0912L82.8242 5.79164L79.266 3.59612L73.2094 14.9144ZM68.0234 8.8578L69.7646 9.23634L69.7268 5.07241L68.0234 8.8578ZM63.708 12.7189L66.1307 13.2488L67.077 11.0155L69.9161 11.659V14.0816L72.6037 14.6873L72.6415 1.89269L69.0076 1.09776L63.708 12.7189ZM53.6768 12.4539H56.7051L56.8943 7.83575L59.0142 7.79789L58.8627 12.4539H61.891L62.3074 0.151415H59.1656L59.0142 5.14812L57.0079 5.11027L57.1972 0.151415L54.0553 0L53.6768 12.4539ZM50.4213 13.0596L51.5948 12.8325L50.2699 6.73798L46.4467 7.68433L46.8252 9.842L48.3394 9.65273C48.3772 9.80414 48.3772 9.99341 48.3772 10.1827C48.3394 10.3341 48.3394 10.5612 48.3394 10.7505C48.1501 11.2047 47.6959 11.5454 47.2416 11.5833C46.7117 11.6968 46.1817 11.4319 45.9167 10.9776C45.5382 10.107 45.2354 9.19848 45.0461 8.25214C44.819 7.07867 44.7054 5.86735 44.7433 4.65602C44.7811 4.23963 45.0839 3.86109 45.5003 3.74753C45.8789 3.63397 46.2953 3.82324 46.5224 4.12607C46.7495 4.4289 46.9388 4.76958 47.0902 5.11027C47.2038 5.33739 47.3173 5.52666 47.393 5.79164L49.9292 4.88315C49.8157 4.46675 49.6264 4.05036 49.4371 3.67182C49.21 3.25543 48.945 2.83904 48.6422 2.49835C47.7337 1.43845 46.3331 1.02205 45.0082 1.32488C43.7969 1.62772 42.8127 2.49835 42.3963 3.63397C41.8664 5.14812 41.6771 6.77584 41.9042 8.3657C42.1313 9.99341 42.7749 11.5454 43.7591 12.9082C44.5918 13.8924 45.9546 14.3466 47.2416 14.1195C48.2637 13.9302 49.1722 13.3246 49.6643 12.4161L50.4213 13.0596ZM33.8792 19.1162L36.1883 18.0563L33.3492 12.1889L39.368 16.5043L41.3364 15.5579L35.9612 4.20178L33.6899 5.37525L36.1504 10.5612L30.813 6.73798L28.3904 7.83575L33.8792 19.1162ZM12.4918 29.7531L13.7788 27.3305C13.3624 27.1412 12.9839 26.9519 12.5296 26.8005C12.0375 26.6113 11.5454 26.4977 11.0533 26.422C9.61488 26.422 8.3657 27.1791 7.68433 28.4282C7.11652 29.4881 7.07867 30.813 7.64648 31.9108C8.3657 33.3492 9.50132 34.5606 10.8262 35.4691C12.1132 36.3397 13.6274 36.9075 15.2172 37.0211C16.6178 37.1346 17.9806 36.529 18.7755 35.3555C19.7597 33.9928 19.8354 32.1758 18.8512 30.7752C18.5862 30.5102 18.3213 30.2074 18.0184 29.9424C17.7156 29.6774 17.4506 29.4124 17.1478 29.1475L15.6336 31.1537L16.3907 31.6837C16.6178 31.9108 16.845 32.1379 17.0342 32.365C17.3371 32.8571 17.3371 33.4249 16.9964 33.8413C16.6557 34.2956 16.0879 34.5227 15.5201 34.3334C14.4602 34.0306 13.476 33.5764 12.5675 33.0085C11.5076 32.4029 10.5612 31.6458 9.76629 30.7752C9.46346 30.4345 9.46346 29.9424 9.72844 29.526C9.91771 29.2232 10.3341 29.1096 10.6748 29.1853H10.7126C11.0155 29.261 11.3562 29.3746 11.659 29.4503C11.9618 29.526 12.2268 29.6774 12.4918 29.7531ZM1.74128 44.0997L10.5234 47.3552C11.0155 47.4687 11.5076 47.4687 11.9997 47.393C12.3404 47.3552 12.6432 47.2037 12.946 47.0523C13.8167 46.5981 14.498 45.9167 14.9144 45.0082C15.4444 43.9105 15.4444 42.6613 14.9901 41.5257C14.8766 41.2228 14.763 40.9957 14.5737 40.7307C14.233 40.2008 13.7409 39.8222 13.211 39.5573L5.03456 35.9612L3.59612 38.838L12.3025 42.1313L12.2646 42.1692C12.7189 42.5099 12.9082 43.0777 12.681 43.6455C12.4918 44.1754 11.9618 44.554 11.394 44.4404L2.80119 41.2228L1.74128 44.0997ZM29.1853 22.0688L31.7594 20.3275L24.9078 10.107L22.2202 11.924L29.1853 22.0688ZM21.5388 29.9802L23.5829 27.8983L21.3496 25.5892L20.8196 23.5451L25.7028 25.8542L27.8226 23.6587L20.0625 19.8354L18.7755 15.3687L16.9964 17.2235L18.4727 22.5987L14.9144 19.1162L12.8703 21.1603L21.5388 29.9802ZM7.11652 54.6231L9.87986 54.9259L10.0691 53.4496C9.91771 52.8818 9.46346 52.4654 8.89566 52.3519C8.17643 52.2005 7.49506 52.6547 7.26794 53.2982L7.11652 54.6231ZM2.27123 54.0174L4.76959 54.3203L4.921 53.0332C4.88315 52.4276 4.39105 51.8976 3.74753 51.8219C3.14187 51.7841 2.57406 52.1626 2.38479 52.8061L2.27123 54.0174ZM0 56.8186L12.0754 58.1435L12.681 52.3519C12.681 50.7999 11.5833 49.475 10.0313 49.21C8.47926 48.9072 6.96511 49.74 6.35945 51.2163C6.09447 49.8157 4.80744 48.7557 3.40685 48.7936C1.93055 48.8693 0.719223 49.9292 0.567808 51.4055L0 56.8186ZM7.83575 79.0767L7.30579 76.5405C7.00296 76.5783 6.73799 76.6162 6.47301 76.654C6.24589 76.654 6.01876 76.6919 5.79164 76.6919L5.82949 76.654C5.22383 76.654 4.73173 76.2376 4.58032 75.632C4.50461 75.102 4.73173 74.5342 5.22383 74.2692C6.13232 73.815 7.11652 73.4365 8.10072 73.0958C9.08492 72.7929 10.107 72.528 11.1669 72.3387C11.6968 72.3008 12.1511 72.6037 12.3404 73.0958C12.4539 73.5122 12.3025 73.9286 11.9997 74.1935C11.7725 74.4207 11.5076 74.6478 11.2426 74.7992C11.0155 74.9885 10.7883 75.102 10.5991 75.2913L11.5076 77.9032C11.924 77.6761 12.3404 77.449 12.7189 77.184C13.1353 76.919 13.5138 76.5783 13.8924 76.1998C14.8387 75.102 15.1415 73.55 14.5737 72.1873C14.0816 70.9381 13.0217 70.0296 11.7347 69.7268C10.1448 69.4997 8.51712 69.6132 7.00296 70.1053C5.45095 70.6731 4.01251 71.5438 2.91475 72.6794C2.00625 73.815 1.77913 75.3291 2.30908 76.654C2.72548 77.7896 3.67182 78.6603 4.88315 79.001C5.37525 79.1524 5.86735 79.1902 6.3973 79.2281C6.81369 79.1902 7.34365 79.1524 7.83575 79.0767ZM108.83 64.0108C108.224 64.0108 107.732 63.5187 107.732 62.9131C107.732 62.3074 108.186 61.8153 108.83 61.8153C109.435 61.8153 109.928 62.3074 109.928 62.9131C109.965 63.5187 109.435 64.0108 108.83 64.0108ZM100.01 72.9444L111.934 76.5405L114.205 69.6511L111.934 68.9697L110.685 72.7551L100.805 69.9918L100.01 72.9444ZM98.3443 77.9032L109.738 82.6349L111.025 79.7202L99.5556 74.8749L98.3443 77.9032ZM100.161 84.5655L101.562 81.9914C101.259 81.8022 100.956 81.6507 100.653 81.4993C100.313 81.3858 100.01 81.2722 99.6692 81.1965C98.3822 80.9694 97.0573 81.2722 96.1109 82.1807C94.8239 83.3163 94.4454 85.209 95.1267 86.7989C95.9217 88.1616 96.9816 89.3351 98.3065 90.2436C99.5935 91.1521 101.108 91.7199 102.66 91.9848C104.098 92.0227 105.499 91.3035 106.294 90.13C107.202 88.7294 107.202 87.026 106.369 85.6254C106.18 85.3226 105.915 85.0576 105.65 84.7926C105.347 84.4898 105.044 84.2626 104.704 84.1112L103.19 86.1175C103.379 86.1932 103.53 86.3825 103.682 86.496C103.909 86.6853 104.06 86.9124 104.25 87.1017C104.666 87.5938 104.666 88.1995 104.325 88.6916C103.985 89.1837 103.379 89.3351 102.849 89.1458C101.903 88.7294 101.032 88.2752 100.161 87.7074C99.1771 87.1017 98.2686 86.3825 97.398 85.5497C97.2087 85.209 97.2087 84.7926 97.398 84.4519C97.6251 84.1491 97.9658 83.922 98.3443 83.8841C98.685 83.9598 98.9878 84.1112 99.3285 84.2248C99.6692 84.3384 99.8963 84.4519 100.161 84.5655ZM95.4296 102.433L97.4358 100.426L93.0448 95.9973L99.7449 98.0036L101.448 96.3002L92.6662 87.3288L90.8871 89.1458L94.8996 93.2719L88.7294 91.3413L86.6475 93.3854L95.4296 102.433ZM78.9253 99.3663L84.187 107.164C84.3762 107.429 84.6034 107.618 84.8305 107.77C85.1333 107.959 85.4361 108.148 85.739 108.262C87.1017 108.641 88.578 108.376 89.7136 107.467C90.5464 106.786 91.1142 105.801 91.2656 104.742C91.3413 104.363 91.3035 103.985 91.2278 103.568C91.1521 103.19 91.0385 102.849 90.8114 102.508L85.474 94.6346L83.3542 96.1866L88.6159 103.72C88.9566 104.363 88.7673 105.158 88.1616 105.499C87.5938 105.839 86.8746 105.688 86.4582 105.196L81.3858 97.5872L78.9253 99.3663ZM74.5342 112.388C75.7077 113.448 77.4111 113.637 78.8117 112.994C80.023 112.464 80.8558 111.328 81.0451 110.003C81.2722 108.376 81.083 106.748 80.4773 105.234C79.9473 103.909 79.1524 102.735 78.0925 101.713C76.9569 100.805 75.4427 100.54 74.1178 101.032C72.7551 101.562 71.7709 102.773 71.5438 104.249C71.4681 105.915 71.6952 107.581 72.3766 109.095C72.9065 110.382 73.6636 111.442 74.5342 112.388ZM76.5026 110.609C76.8055 110.95 77.2976 111.025 77.7518 110.836C78.1303 110.685 78.4332 110.306 78.4332 109.852C78.2439 108.792 77.9411 107.732 77.5625 106.71C77.184 105.65 76.6919 104.628 76.1619 103.606C75.7834 103.227 75.3292 103.114 74.9128 103.303C74.4207 103.492 74.1178 103.947 74.1557 104.439C74.3828 105.65 74.7235 106.824 75.1777 107.921C75.5563 108.868 75.9727 109.738 76.5026 110.609ZM67.1906 108.148L69.8404 107.581L69.424 106.331C69.2725 105.991 69.0833 105.688 68.894 105.347C68.1369 104.249 66.8499 103.644 65.525 103.72C64.0487 103.795 62.7617 104.742 62.1939 106.104C61.8153 107.202 61.6261 108.3 61.6261 109.435C61.6639 111.442 62.3074 113.448 63.4809 115.114C64.3894 116.287 65.8657 116.817 67.342 116.552C68.894 116.287 70.1432 115.114 70.5217 113.562C70.5596 113.221 70.6353 112.842 70.6353 112.464C70.6731 112.085 70.6353 111.669 70.5974 111.29L68.1748 111.442C68.2126 111.858 68.2126 112.275 68.2126 112.691C68.1748 112.956 68.1369 113.183 68.0991 113.41C67.872 113.902 67.4177 114.243 66.8878 114.243C66.3199 114.243 65.8657 113.902 65.6764 113.334C65.3357 112.312 65.0329 111.215 64.8815 110.117L64.6165 107.051C64.6544 106.634 64.9951 106.256 65.4115 106.142C65.7143 106.066 66.055 106.104 66.3199 106.331C66.4714 106.559 66.6228 106.824 66.7742 107.051C66.9256 107.353 67.1149 107.77 67.1906 108.148ZM44.289 115.227L47.0523 115.795L48.1122 110.76L52.9197 104.174L50.4213 103.682L47.5823 107.732L46.9009 103L43.9862 102.319L45.3868 110.193L44.289 115.227ZM32.5165 110.722L35.1662 112.047L39.4816 102.962L41.7907 104.022L42.737 101.865L35.3934 98.2686L34.2956 100.351L36.7182 101.562L32.5165 110.722ZM20.3275 102.697L27.7469 92.4012L29.8667 94.1425L29.3367 100.086L32.4029 95.9973L34.3334 97.5115L26.9898 107.656L25.2107 106.369L26.1192 99.1771L22.2959 104.098L20.3275 102.697ZM20.4032 85.5497L13.3624 92.0227C13.0596 92.3255 12.8703 92.6662 12.681 93.0447C12.5675 93.3476 12.4539 93.6504 12.4161 93.9911C12.2646 95.316 12.681 96.6409 13.6274 97.6629C14.3845 98.42 15.4065 98.9121 16.4664 98.9499C16.7693 98.9878 17.1099 98.9499 17.4128 98.9121C17.9427 98.7607 18.397 98.5714 18.8134 98.2686L26.0056 91.4927L24.1508 89.6L17.4506 95.8459C16.9964 96.2623 16.315 96.338 15.8229 95.9595C15.3308 95.581 15.2172 94.9374 15.5201 94.3696L22.4095 87.8209L20.4032 85.5497ZM9.99342 89.2215C11.7725 89.1458 13.5138 88.6158 14.9901 87.7074C16.315 86.9124 17.4128 85.8525 18.2834 84.5655C18.8134 83.3542 18.8134 81.9914 18.2077 80.7801C17.5263 79.4552 16.2014 78.5846 14.763 78.4332C12.9082 78.471 11.0533 79.001 9.50132 79.9852C8.3657 80.6665 7.3815 81.575 6.66228 82.5971C5.75379 84.1112 5.79164 86.0039 6.81369 87.4045C7.57077 88.4644 8.70639 89.1458 9.99342 89.2215ZM9.99342 86.3825C11.0533 86.0418 11.9997 85.5875 12.946 85.0954C14.0059 84.4898 14.9523 83.8084 15.8986 82.9756C16.0879 82.6349 16.05 82.2564 15.8608 81.9536C15.6336 81.5372 15.1794 81.3479 14.763 81.3858C13.5517 81.7643 12.3782 82.2564 11.3183 82.8242C10.4855 83.2785 9.72844 83.8463 9.00922 84.4141C8.63068 84.8305 8.59282 85.4361 8.89566 85.8904C9.16063 86.1932 9.53917 86.4203 9.99342 86.3825ZM5.52666 64.2758C4.921 64.2758 4.46675 63.7837 4.46675 63.1781C4.46675 62.5724 4.95885 62.0803 5.52666 62.0803C6.13232 62.0803 6.62442 62.5724 6.62442 63.1781C6.62442 63.7837 6.13232 64.2758 5.52666 64.2758Z" fill="#1E2428"/>
<path d="M57.4998 18.3589C35.4688 18.3589 17.6396 36.2259 17.6396 58.2568C17.6396 80.2499 35.4688 98.117 57.4998 98.117C79.5307 98.117 97.3977 80.2499 97.3977 58.2568C97.3599 36.2259 79.5307 18.3589 57.4998 18.3589ZM84.6031 40.1627C84.6031 40.5034 84.5653 40.8441 84.5274 41.1469C84.4896 41.2983 84.376 41.374 84.2246 41.374C84.111 41.4119 83.9217 41.3362 83.846 41.1848C83.8082 41.1469 83.8082 41.0712 83.8082 40.9955C83.7703 40.8819 83.7703 40.7684 83.7703 40.6927L83.6189 40.1249C83.5811 39.9356 83.4296 39.822 83.2404 39.7842C83.0511 39.7463 82.8997 39.8599 82.824 40.0113L80.5149 41.0333C80.6663 40.5412 80.7042 40.0491 80.7799 39.557C80.8177 39.1407 80.8556 38.6864 80.8934 38.2322C80.9692 38.1943 81.0827 38.1186 81.1963 38.0429C81.272 38.005 81.3477 37.9293 81.3855 37.8536C81.9155 38.1186 82.4076 38.3079 82.9375 38.4971C83.4296 38.6486 83.9217 38.8 84.4138 38.8757C84.5653 39.2921 84.6031 39.7463 84.6031 40.1627ZM80.6663 36.9073C80.6663 36.7559 80.8177 36.6044 80.9691 36.6044C81.1206 36.6044 81.272 36.7559 81.272 36.9073C81.272 37.0587 81.1206 37.2101 80.9691 37.2101C80.8177 37.2101 80.6663 37.0587 80.6663 36.9073ZM66.8497 32.6676C67.1903 31.1156 68.1745 29.7908 69.5373 28.9201C70.7486 28.163 72.1871 27.8981 73.5498 28.1252C75.7832 28.5037 77.903 29.4879 79.6821 30.9642C81.9912 32.8948 83.5811 35.6202 84.1867 38.5728C83.7703 38.4971 83.3161 38.3457 82.9375 38.2322C82.4454 38.0807 81.9912 37.8536 81.5748 37.6265C81.6127 37.3237 81.6127 37.0587 81.4991 36.7937C81.3855 36.4909 81.1584 36.2638 80.8556 36.0745C80.6663 35.9988 80.4392 36.0366 80.2499 36.1502C80.0985 36.2638 79.985 36.4152 79.985 36.6423C79.9092 36.7937 79.9092 37.0208 79.985 37.248C80.0607 37.5886 80.2121 37.8536 80.5149 38.0429C80.5149 38.6107 80.5149 39.1406 80.4392 39.6327C80.3635 40.1249 80.2499 40.5791 80.1364 40.9955C79.455 40.3898 78.8493 39.7463 78.3194 38.9892C77.6002 38.005 77.0702 36.983 76.7295 35.8095C76.616 34.9389 76.2753 34.0304 75.7832 33.2355C75.5182 32.8191 75.1775 32.4405 74.8747 32.0998C74.1176 31.5699 73.1334 31.4942 72.3006 31.8727C71.4678 32.2891 70.9379 33.1219 70.9 34.0304C70.9379 34.9767 71.0514 35.9609 71.2786 36.8694C71.5814 38.2322 72.0735 39.5192 72.7549 40.7305L76.086 46.1436L76.0481 46.56C76.616 46.6736 76.5024 47.5442 75.9346 47.5821C75.4425 47.6199 75.2532 46.7114 75.7453 46.5979C76.086 46.4843 75.3289 45.9165 75.0261 45.7651C74.7611 45.6137 74.3447 45.538 74.0419 45.6137C74.0419 45.5001 74.004 45.3487 73.9662 45.1973C73.8526 45.008 73.6255 44.8187 73.3605 44.7809C73.1713 44.8187 72.9441 44.743 72.7549 44.6673C72.5277 44.5538 72.3006 44.4402 72.1492 44.2131C72.1871 44.5538 72.1492 44.8566 72.0356 45.1216C71.8842 45.4244 71.695 45.6515 71.3921 45.8408C71.3543 45.9922 71.3543 46.0679 71.3921 46.1815C71.43 46.3329 71.5057 46.4086 71.6192 46.4843C71.3164 46.6736 71.1271 46.9764 71.0136 47.2792C70.8622 47.6578 70.9 48.1877 71.1271 48.5663C71.7328 48.6041 71.8085 49.4748 71.165 49.5883C70.7108 49.664 70.3701 49.1719 70.6729 48.7934C69.6508 46.6736 68.7424 44.5159 67.9853 42.3204C67.9096 42.0554 67.796 41.8283 67.7203 41.6012C67.1903 39.8977 66.8875 38.1943 66.8118 36.4909C66.5847 35.2039 66.6604 33.9168 66.8497 32.6676ZM79.2657 51.0268C79.2279 50.6861 79.0386 50.2318 79.0007 50.2697L79.2657 50.1183C79.455 50.4211 79.5686 50.7996 79.6064 51.1403C79.6443 51.5567 79.5686 52.011 79.4171 52.3895L79.3036 51.746C79.3414 51.481 79.2657 51.3296 79.2657 51.0268ZM79.5307 55.4178C79.72 55.7585 79.8335 56.0992 79.8335 56.4777C79.8335 56.8941 79.7578 57.3484 79.5307 57.6512C79.455 57.4619 79.2657 57.3484 79.1143 57.3484C78.925 57.3484 78.8115 57.4998 78.7358 57.689L78.6601 57.6512C78.4708 57.3484 78.3194 57.0077 78.3194 56.6291C78.3194 56.2884 78.4708 55.9478 78.6601 55.7206C78.7736 55.8721 78.925 55.9478 79.1143 55.9099C79.3793 55.9099 79.5686 55.6828 79.5307 55.4178ZM79.4171 54.32C80.0607 54.85 80.4392 55.5692 80.477 56.402C80.5149 57.2726 80.1742 58.1054 79.5307 58.6732L79.4928 58.1433C79.8335 57.7269 80.0228 57.1591 80.0985 56.5913C80.0985 55.9478 79.9092 55.3042 79.4928 54.85L79.4171 54.32ZM79.6064 63.2536C79.5686 63.5942 79.5307 63.8971 79.3793 64.162C79.2657 64.0106 79.1143 63.9349 78.925 63.9349C78.7736 63.8971 78.5844 64.0106 78.4329 64.1242C78.2437 63.8592 78.168 63.5185 78.168 63.2157C78.168 62.9129 78.2437 62.61 78.4329 62.3829C78.5086 62.5722 78.7358 62.7236 78.925 62.6857C79.1522 62.6479 79.3414 62.4586 79.3414 62.1936C79.5307 62.5343 79.6064 62.9129 79.6064 63.2536ZM79.4171 61.6637L79.4928 61.0202C80.1742 61.588 80.5528 62.4208 80.5149 63.3293C80.4771 64.1242 80.0607 64.8056 79.4171 65.2977V64.7299C79.7578 64.3135 79.9471 63.8214 79.985 63.3293C79.985 62.7236 79.7957 62.1558 79.4171 61.6637ZM78.2437 64.6163L78.2058 65.2977C77.7137 64.8056 77.2595 64.0106 77.2216 63.1778C77.1838 62.4586 77.638 61.6637 78.2815 61.2094L78.2437 61.8151C77.9787 62.1936 77.8651 62.6857 77.8273 63.14C77.8273 63.6699 77.9408 64.162 78.2437 64.6163ZM78.6222 62.0801L78.7736 57.8405C78.8115 57.7647 78.8872 57.7269 79.0007 57.7269C79.0765 57.7647 79.1522 57.8026 79.2279 57.8783L79.0765 62.1179C79.0007 62.1936 78.925 62.3072 78.8493 62.3072C78.7358 62.2694 78.6601 62.1558 78.6222 62.0801ZM78.4329 58.1054V58.6354C77.8273 58.1433 77.4866 57.3862 77.4487 56.6291C77.4487 55.8342 77.7894 55.0771 78.4329 54.585L78.5086 55.1907C78.2058 55.6071 78.0165 56.0992 78.0165 56.6291C77.9408 57.1591 78.1301 57.6512 78.4329 58.1054ZM78.925 55.3421C78.8493 55.3421 78.7736 55.3042 78.7358 55.2664L78.3951 51.5567C78.3951 51.481 78.4708 51.3674 78.5465 51.3296C78.6222 51.2917 78.7736 51.3674 78.8493 51.4431L79.19 55.1528C79.1143 55.3042 79.0386 55.3421 78.925 55.3421ZM78.3194 51.7838C78.0923 51.746 77.903 51.7081 77.6759 51.5946C77.4866 51.5189 77.2973 51.3674 77.1838 51.1782L78.8493 50.3454C78.8872 50.3454 78.925 50.6861 78.9629 50.8375C78.9629 50.9889 78.9629 51.1403 78.9629 51.2539C78.8115 51.1782 78.6222 51.1782 78.5086 51.2539C78.2815 51.3674 78.2058 51.5567 78.3194 51.7838ZM66.6604 47.9985L67.4553 48.112C67.7582 48.1877 68.061 48.2634 68.3638 48.377C68.5152 48.4527 68.6288 48.6041 68.7802 48.7177C68.8938 48.8691 68.9695 49.0584 69.0073 49.2476C69.083 49.0205 69.348 48.8312 69.5373 48.7555C69.7644 48.6798 69.9537 48.6798 70.1429 48.7177C69.8023 49.4748 70.5972 50.194 71.3164 49.8533C71.9978 49.5126 71.9221 48.5284 71.2029 48.2634C71.0514 47.9227 71.0893 47.5442 71.2786 47.2414C71.5057 46.8628 71.8085 46.6357 72.2249 46.5979L72.2628 46.3329H71.8842C71.8085 46.3329 71.7328 46.295 71.695 46.1815C71.695 46.1058 71.695 46.0301 71.7707 45.9543C71.9221 45.8029 72.0356 45.6515 72.1492 45.5001C72.2628 45.3108 72.3385 45.0837 72.3385 44.8944C72.4899 45.0459 72.6792 45.1594 72.9063 45.2351H73.2848C73.3605 45.2351 73.4362 45.273 73.5119 45.3487C73.5498 45.3865 73.5498 45.4244 73.5876 45.5001C73.6255 45.5758 73.6255 45.6894 73.6255 45.8029L73.2848 46.0679L73.5119 46.2193C73.8148 46.0679 74.1555 46.0679 74.4961 46.1436C74.799 46.2193 75.0639 46.4086 75.2154 46.6357C74.6854 47.2792 75.2532 48.2634 76.086 48.0363C76.8052 47.8092 76.9566 46.8628 76.3131 46.4843C76.351 46.3329 76.4645 46.1815 76.6538 46.1058C76.8809 45.9543 77.1081 45.9165 77.373 45.9922C77.2973 45.8029 77.2973 45.5001 77.4109 45.273C77.5244 45.0459 77.6759 44.8944 77.903 44.8187C78.0544 44.743 78.168 44.6673 78.2815 44.5159C78.4329 44.3266 78.5465 44.1374 78.5844 43.9102L79.1143 48.2256L78.3951 48.7177C78.168 48.642 77.903 48.5284 77.638 48.4527C77.3352 48.377 77.0702 48.3013 76.7674 48.3391C76.4267 48.377 76.1996 48.4148 75.9724 48.6041C75.7075 48.8312 75.6318 48.9827 75.556 49.2098C75.5182 49.399 75.5182 49.8911 75.5182 50.0047L73.7769 50.6482C73.5119 50.1183 72.8684 49.8533 72.3006 50.0047C71.695 50.2318 71.3164 50.7996 71.43 51.4431L69.7266 51.8217L66.6604 47.9985ZM69.0073 51.3296C68.8181 51.4053 68.6666 51.3674 68.5152 51.1782C68.4395 51.0646 68.4395 50.8753 68.5152 50.7618L69.0073 51.3296ZM67.9096 49.8911C67.796 49.929 67.6824 49.8911 67.5689 49.7776C67.4553 49.664 67.4553 49.5126 67.4932 49.3612L67.9096 49.8911ZM79.0386 45.9543L78.9629 45.2351C79.1143 45.273 79.2279 45.4622 79.2279 45.5758C79.2279 45.7651 79.1522 45.8786 79.0386 45.9543ZM79.3414 47.0521C79.3793 47.2035 79.3414 47.3928 79.19 47.4685L79.0765 46.825C79.2279 46.8628 79.2657 46.9385 79.3414 47.0521ZM77.1459 48.9448C76.9945 48.9069 76.8431 48.9069 76.6538 48.9069C76.5781 48.9069 76.4267 48.9827 76.351 49.0205C76.2753 49.0962 76.1996 49.1719 76.1996 49.1719L76.1239 49.4369V49.6262L75.7832 49.7776C75.7453 49.6262 75.7453 49.4748 75.7832 49.2855C75.7832 49.2098 75.7832 49.1341 75.8589 49.0584C75.8967 48.9069 76.0103 48.8312 76.1239 48.7177C76.2374 48.6041 76.5781 48.4906 76.7295 48.4906C76.8431 48.5284 76.9566 48.5284 77.1459 48.5284C77.3352 48.5284 77.7516 48.7177 77.9408 48.7934L77.4487 49.0205C77.3352 49.0584 77.2973 48.9827 77.1459 48.9448ZM77.1838 49.2476L76.3888 49.5883C76.351 49.3612 76.3888 49.2476 76.616 49.1719C76.7674 49.1341 76.9566 49.1341 77.0323 49.1719L77.1838 49.2476ZM78.2058 48.9827L79.0386 49.664L78.6601 49.8911L77.8651 49.2098L78.2058 48.9827ZM73.3984 50.7239C73.0955 50.8375 72.8306 50.9511 72.5656 51.0268C72.3006 51.1025 72.0356 51.1782 71.8085 51.2539C71.7328 50.8375 71.9599 50.4211 72.3385 50.2697C72.7549 50.1561 73.2091 50.3454 73.3984 50.7239ZM70.1429 52.011C71.3543 51.746 72.5277 51.4053 73.7012 50.9889C75.0639 50.5347 76.3888 49.9669 77.7137 49.3233L78.5465 50.0047C77.4866 50.6104 76.351 51.1782 75.2154 51.6703L70.635 53.033C70.2944 53.1087 69.9915 52.9195 69.9537 52.5409C69.878 52.3138 69.9537 52.1245 70.1429 52.011ZM76.6917 51.1782C76.9188 51.4053 77.1459 51.6703 77.4109 51.7838C77.638 51.8974 77.9408 52.0488 78.2058 52.0867L78.2437 52.3895C77.903 52.3516 77.5623 52.2381 77.2595 52.0867C76.9188 51.9353 76.6538 51.5946 76.3888 51.3674L76.6917 51.1782ZM79.3414 49.5883C79.19 49.4748 79.0765 49.3233 78.9629 49.2476C78.8493 49.1341 78.7358 49.0205 78.5844 48.8691L79.3793 48.3391C79.5307 48.3391 79.6821 48.377 79.7957 48.4906C80.0228 48.642 80.0607 48.9069 79.9092 49.1719L79.3414 49.5883ZM62.9886 35.3553C63.7078 36.2638 64.0863 37.3615 64.0863 38.4971L63.5185 46.2193C63.4428 47.6578 63.5185 49.0584 63.7456 50.4211C63.9728 51.7081 64.3513 52.9195 64.8434 54.0929C65.0705 54.6229 65.4112 55.0393 65.8276 55.4178L67.4932 56.5156C67.2282 56.5913 66.9254 56.6291 66.6604 56.5913C66.3954 56.5913 66.1683 56.5534 65.9033 56.4399C64.9191 56.0992 64.0106 55.4935 63.3293 54.7364C62.1558 53.4873 61.4366 51.8974 61.2851 50.194C61.1716 48.9827 61.0959 47.8092 61.0959 46.5979C61.0202 45.5001 61.0202 44.4402 61.058 43.3046L61.3987 37.0587C61.3987 36.5287 61.323 35.9609 61.2094 35.3931C61.1337 34.8632 60.9823 34.3711 60.8309 33.8411C61.7015 34.1061 62.4208 34.636 62.9886 35.3553ZM39.1406 72.1114C39.4435 71.9599 39.7842 71.8464 40.1248 71.7707C40.4277 71.695 40.7684 71.695 41.0712 71.7328L41.109 71.3921C40.9576 71.3543 40.7684 71.3164 40.6169 71.3164C40.3898 71.3164 40.1627 71.3543 40.0113 71.4678C38.8757 71.8085 37.74 71.9978 36.5666 72.1871C35.431 72.3385 34.3711 72.452 33.2354 72.4142V72.452C32.9705 72.4142 32.7433 72.3385 32.4784 72.2628C32.1755 72.1492 31.9106 71.9599 31.6834 71.695C31.6077 71.3543 31.6834 70.9757 31.9484 70.7108C32.0241 70.5972 32.2134 70.5215 32.4027 70.4458L41.7526 65.6383H41.7904C42.3204 65.3734 42.8125 65.1084 43.3424 64.9191C43.8345 64.7299 44.3266 64.5784 44.8566 64.3892C44.8944 64.6541 44.9323 64.8813 45.0837 65.0705C45.1973 65.2977 45.273 65.5248 45.4244 65.6762L45.1594 67.1904C44.1752 67.4932 43.4181 68.3638 43.2667 69.3859C43.1531 70.4458 43.6074 71.4678 44.5159 72.0356L44.3645 73.9662L43.7588 74.3826C42.9639 74.1176 42.2068 73.7769 41.4497 73.3984C40.6548 72.982 39.8599 72.5656 39.1406 72.1114ZM54.6229 56.8184C54.3957 57.6133 54.0551 58.3704 53.6387 59.0518V59.0896C53.2601 58.8625 52.9952 58.5597 52.7302 58.1811C52.4652 57.8405 52.2759 57.4619 52.1624 57.0077C52.6545 55.8342 53.033 54.585 53.298 53.3358C53.6387 51.8595 53.8279 50.3832 53.9036 48.9069L54.4336 48.8691C54.2443 50.0426 54.2822 51.2539 54.5093 52.4652C54.585 53.1087 54.8121 53.7144 55.0014 54.2822C55.0014 55.115 54.8878 55.9856 54.6229 56.8184ZM55.2285 54.85L56.3263 56.4399L55.8342 60.2631C55.5314 60.0738 55.2285 59.8467 54.9636 59.5817C54.6986 59.3168 54.4715 58.9761 54.32 58.6354C54.5472 58.1054 54.6986 57.5755 54.8878 57.0455C55.0393 56.3642 55.1528 55.6071 55.2285 54.85ZM44.7052 75.4046C44.5916 75.3668 44.5159 75.2911 44.5159 75.1775L44.7809 70.6729C44.8187 70.5972 44.9323 70.5593 45.0458 70.5972C45.1215 70.5972 45.1594 70.6351 45.1973 70.6729L44.9701 75.2154C44.9323 75.3668 44.7809 75.4046 44.7052 75.4046ZM44.8944 77.4109L44.7809 81.9155C44.7052 81.9912 44.6294 81.9912 44.5537 81.9912C44.478 81.9534 44.4023 81.9155 44.4023 81.8019L44.5159 77.5245C44.5537 77.4487 44.5916 77.373 44.6673 77.3352C44.743 77.3352 44.8187 77.373 44.8944 77.4109ZM43.6452 69.3859C43.721 68.5152 44.2509 67.8339 45.0458 67.4553L44.9323 67.9853C44.5159 68.4017 44.2509 68.9316 44.2509 69.5373C44.2131 70.0294 44.3266 70.4836 44.5916 70.9L44.5159 71.43C43.9102 70.9379 43.5695 70.143 43.6452 69.3859ZM45.0837 70.1051C44.8566 70.0672 44.6294 70.2187 44.5916 70.4079L44.5159 69.6509C44.5159 69.1966 44.6673 68.8181 44.9323 68.4395C44.9323 68.6288 45.0837 68.7802 45.2351 68.8181C45.4244 68.8559 45.5758 68.7802 45.6894 68.5909C45.8408 68.9695 45.9165 69.3102 45.8408 69.6887C45.8029 70.0294 45.6894 70.3322 45.4622 70.5972C45.4622 70.3701 45.273 70.143 45.0837 70.1051ZM45.5001 71.0893C45.9165 70.7486 46.1815 70.2565 46.295 69.7266C46.3707 69.1588 46.1815 68.5531 45.8408 68.0988L45.9922 67.6825C46.4843 68.2881 46.7114 69.0452 46.5978 69.8023C46.4843 70.5215 46.0679 71.165 45.4622 71.5435L45.5001 71.0893ZM45.5001 68.4395C45.4244 68.4774 45.3487 68.5152 45.273 68.5152C45.1973 68.5152 45.1215 68.4774 45.1215 68.4395L45.8786 64.4649C45.9543 64.3892 46.03 64.3513 46.1057 64.3892C46.1436 64.3892 46.2193 64.427 46.2572 64.4649L45.5001 68.4395ZM46.1057 62.7615C45.6894 63.2536 45.5001 63.8592 45.6515 64.5027L45.4622 64.9948C45.008 64.1242 45.0458 63.1021 45.6894 62.3451C46.3329 61.5501 47.4306 61.2852 48.377 61.6637L48.0741 62.0044C47.3171 61.8908 46.5978 62.1936 46.1057 62.7615ZM39.557 57.8405C39.557 58.0297 39.557 58.2568 39.4813 58.4083C39.4435 58.5597 39.4056 58.6732 39.2542 58.7868C39.1406 58.9004 38.9514 58.9004 38.8378 58.7868C38.7621 58.7111 38.6864 58.5597 38.7242 58.4461C38.8757 58.1433 39.0649 57.8405 39.2163 57.5376C39.4435 57.1969 39.7084 56.8563 40.0113 56.5156L45.3487 47.8849C45.7651 47.7713 46.1815 47.6578 46.5978 47.4306C47.1657 47.1657 47.6956 46.8628 48.2256 46.4464C48.5284 46.5979 48.7934 46.6736 49.0962 46.6736C49.399 46.7114 49.7397 46.7493 50.0804 46.7114C49.5504 47.4306 49.0205 48.2634 48.5284 49.0205C47.9227 50.0804 47.3549 51.1403 46.8628 52.2381C46.2572 53.9037 45.5001 55.4935 44.5537 57.0077C43.5695 58.6732 42.3582 60.2252 41.0712 61.588C40.8441 61.7773 40.5412 61.8151 40.3141 61.7394C40.0491 61.588 39.8977 61.3609 39.8977 61.058C39.8599 60.8309 39.822 60.6038 39.822 60.3388C39.7842 60.1117 39.7842 59.8467 39.7463 59.5817L39.7842 57.7269L39.557 57.8405ZM37.3615 59.5439C36.3773 60.6416 35.2795 61.6637 34.1061 62.5722C33.879 62.6857 33.614 62.6857 33.4247 62.5343C33.2354 62.4208 33.1219 62.2315 33.1219 62.0044C33.084 61.2852 33.084 60.5659 33.1597 59.8089C33.2354 59.2032 33.3111 58.5597 33.5004 57.954C34.5603 57.3862 35.5445 56.7805 36.4909 56.0613C37.4372 55.2664 38.3079 54.3958 39.1406 53.4494L43.1153 47.847C43.4181 47.9227 43.7588 47.9227 44.0616 47.9227C44.4023 47.9227 44.8187 47.8849 45.1594 47.8092L40.0113 56.1749C39.1785 57.3484 38.27 58.484 37.3615 59.5439ZM43.8724 58.8247C44.4402 57.8783 45.2351 56.7048 45.8029 55.6071C46.3707 54.5472 46.9007 53.4116 47.3549 52.3516C47.847 51.2539 48.377 50.194 48.9826 49.1719C49.4369 48.4527 49.8911 47.7335 50.4211 47.0143L51.6324 47.4306C51.216 49.5126 50.6861 51.5567 49.929 53.5251C49.0962 55.8342 48.0363 57.9919 46.7871 60.0738C46.6357 60.2631 46.4464 60.3388 46.1815 60.301C46.03 60.2631 45.8408 60.1495 45.7651 59.9603C45.6136 59.7331 45.4622 59.4303 45.4244 59.1275C45.3108 58.7868 45.2351 58.4461 45.2351 58.0676C45.1973 58.4083 44.9701 58.7489 44.6673 58.8625C44.4023 58.9761 43.7588 59.0139 43.8724 58.8247ZM51.8217 47.7713C52.0488 48.112 52.3516 48.3391 52.7302 48.5663L53.6387 48.8312C53.6008 50.1183 53.4494 51.481 53.1466 52.7302C52.7302 54.7364 52.011 56.6291 51.0267 58.4083C50.9132 58.484 50.7996 58.484 50.6861 58.484C50.5346 58.4461 50.4589 58.4083 50.3832 58.3326C50.1561 58.1054 49.929 57.8405 49.7776 57.5755C49.5883 57.2726 49.4747 56.8941 49.4369 56.5534C49.399 56.402 49.399 56.2127 49.399 56.0613C49.4369 55.8721 49.4369 55.7206 49.4747 55.5314C49.8911 54.2822 50.2697 53.0709 50.6482 51.8217C51.0646 50.5347 51.4431 49.1719 51.8217 47.7713ZM46.5221 64.8056C46.9385 64.7299 47.3171 64.5027 47.6199 64.1999C47.9606 63.8592 48.1877 63.405 48.2256 62.875L48.7555 62.7993C48.7555 63.4807 48.4905 64.1242 47.9606 64.6163C47.5442 65.0327 46.9764 65.2598 46.4086 65.2977L46.5221 64.8056ZM46.4843 63.7835L47.6199 63.4428C47.5442 63.6699 47.3928 63.9349 47.2414 64.0485C47.0521 64.1999 46.825 64.3513 46.6357 64.3892C46.6357 64.2756 46.5978 64.1242 46.5978 64.0106C46.5221 63.9728 46.5221 63.8592 46.4843 63.7835ZM47.7713 62.7993C47.6578 62.7993 47.5442 62.7615 47.5442 62.6479C47.5063 62.5722 47.5442 62.5343 47.582 62.4965L51.216 61.1716C51.3296 61.1716 51.4053 61.2094 51.4431 61.2852C51.4431 61.3609 51.4431 61.4366 51.4053 61.5123L47.7713 62.7993ZM51.0267 60.4902C50.9132 60.5281 50.8753 60.6416 50.7996 60.7173C50.7618 60.7931 50.6861 60.8688 50.6861 60.9066H50.3075C50.3454 60.7552 50.3832 60.6038 50.4589 60.4902C50.5346 60.3388 50.6482 60.2631 50.7618 60.1874C51.216 59.9981 51.7081 59.9603 52.2002 60.1117C52.6166 60.2252 52.9194 60.4145 53.2223 60.6795L52.7302 60.9445C52.5031 60.7931 52.3138 60.6795 52.0488 60.6038C51.746 60.5281 51.4053 60.3767 51.0267 60.4902ZM54.5093 48.4148C54.2065 48.4906 53.8658 48.4527 53.563 48.377C52.9951 48.2634 52.5031 47.9606 52.1624 47.5064C52.3516 47.4685 52.768 47.2792 52.9573 47.2414C53.1466 47.1278 53.8279 46.6357 54.0172 46.5222L55.0014 45.5758L54.5093 48.4148ZM53.3358 46.5222C52.9194 46.9385 52.5409 46.9764 52.0867 47.0143C51.5946 47.0521 51.1025 46.9385 50.6482 46.7114C50.5346 46.6736 50.5346 46.5979 50.5346 46.5222C50.5346 46.4843 50.4968 46.3707 50.5725 46.3707C51.1782 46.2193 51.481 46.0301 51.8974 45.8029C52.768 45.273 53.2601 44.5916 53.9415 43.8345C54.1686 43.5696 54.5093 43.2289 54.8121 42.9639C54.9636 42.8125 55.2285 42.6611 55.4178 42.5475L55.0014 45.1216L53.3358 46.5222ZM55.1528 42.2447C55.0014 42.3204 54.85 42.3961 54.7364 42.5096C54.4715 42.6989 54.1308 42.8882 53.9794 43.1153C53.298 44.0995 52.4652 44.8944 51.481 45.538C51.0646 45.8029 50.6861 46.0301 50.194 46.1058C49.7397 46.1815 48.7934 46.0301 48.7934 46.0301L53.4873 41.1469C53.8279 40.8819 54.1686 40.617 54.585 40.3898C54.8878 40.2384 55.1907 40.1249 55.4935 40.0113C55.5314 40.352 55.6071 40.6927 55.6071 41.0333C55.6071 41.3362 55.6071 41.639 55.5692 41.9418C55.4178 42.0933 55.3042 42.1311 55.1528 42.2447ZM54.5472 39.8977C54.0929 40.1627 53.7144 40.4277 53.3737 40.7684L48.2256 45.9922C47.4306 46.5979 46.4843 47.0521 45.5001 47.2792C44.5159 47.5064 43.4938 47.5821 42.4718 47.4306C42.6989 47.3171 42.9639 47.2035 43.2289 47.0143C43.4938 46.825 43.7588 46.6357 44.0238 46.3707L46.9007 43.1532L50.194 39.4813C50.8753 38.8378 51.7081 38.2322 52.6166 37.7779C53.2601 37.4372 53.9794 37.1723 54.7364 36.983C54.8878 37.3237 55.0771 37.7401 55.2285 38.1186L55.5314 39.4056C55.2285 39.5949 54.85 39.7463 54.5472 39.8977ZM52.503 37.5129C51.6703 37.9672 50.6861 38.4214 49.9668 39.0649L46.7114 42.6989L43.6452 46.0301C42.5096 47.1278 41.2605 47.8849 39.6706 48.0363C38.9514 48.0742 38.27 48.0742 37.5886 47.9227L38.0807 46.295C38.3836 45.538 38.6864 44.8187 39.1028 44.1374C39.4813 44.0995 39.8599 43.9859 40.2384 43.7967C40.6548 43.5696 41.0333 43.3046 41.3362 42.9639L46.4843 38.0807C47.3928 37.3615 48.377 36.8694 49.4747 36.5666C51.1403 36.0745 52.8816 36.1502 54.5093 36.6802C53.8279 36.9451 53.1466 37.2101 52.503 37.5129ZM39.5949 48.6041C40.3898 48.4906 41.1469 48.2256 41.7904 47.8092L42.4718 47.9606L38.6864 53.3737C37.8915 54.2822 37.0208 55.1528 36.0745 55.8721C35.1281 56.6291 34.1061 57.2726 33.0462 57.8026C32.8948 57.8405 32.7433 57.8026 32.6298 57.689C32.5162 57.5755 32.5162 57.4619 32.5162 57.3484C32.819 56.8563 33.0462 56.4399 33.2733 55.9478C33.5761 55.3421 33.8032 54.6986 34.0682 54.0929C34.6739 53.4873 35.2417 52.8437 35.6959 52.1245C36.453 50.9889 36.983 49.8154 37.3615 48.5284C38.1186 48.642 38.8378 48.6798 39.5949 48.6041ZM44.1752 77.6002L44.0616 78.2437C43.456 77.8273 43.0396 77.1081 43.0017 76.351C42.9639 75.4425 43.4181 74.6476 44.2131 74.1555V74.7611C43.8724 75.1397 43.6452 75.6696 43.6452 76.1996C43.6831 76.6917 43.8724 77.2216 44.1752 77.6002ZM45.9543 83.2782C45.8408 83.9218 45.5001 84.4896 45.0458 84.8303C44.8187 84.8681 44.6294 84.906 44.478 84.906C44.1752 84.8681 43.8724 84.7924 43.6452 84.6031C43.191 84.2246 42.8882 83.6189 42.8503 83.0133C42.8125 82.2183 43.191 81.4234 43.8724 81.007L44.0238 81.4234C43.6452 81.8777 43.4181 82.4076 43.4181 83.0133C43.4938 83.5054 43.5695 83.9218 43.9481 84.2624C44.0238 84.4517 44.3266 84.5653 44.5537 84.5653C44.6673 84.5274 44.8187 84.4517 44.8944 84.3382C45.2351 83.9975 45.4244 83.5432 45.4622 83.0511C45.5001 82.559 45.3865 82.0669 45.1215 81.6127L45.2351 81.1584C45.7651 81.6884 46.0679 82.5212 45.9543 83.2782ZM45.1215 78.2058L45.1594 77.5623C45.5001 77.2216 45.6894 76.6917 45.6894 76.1996C45.7272 75.6696 45.5001 75.1397 45.1973 74.7611L45.2351 74.3826C45.8786 74.799 46.295 75.5182 46.295 76.3131C46.295 77.1081 45.8029 77.8651 45.1215 78.2058ZM55.7206 76.351C55.8342 76.086 56.0613 75.8967 56.3263 75.7832L56.0613 75.4803C55.7963 75.6318 55.5314 75.8589 55.4178 76.1617C55.3421 76.3131 55.3042 76.5024 55.3042 76.6917L55.5314 77.7137C54.6986 77.1459 53.8658 76.6917 52.9194 76.3131C51.8217 75.8589 50.6104 75.6318 49.4369 75.5182C48.9069 75.4804 48.377 75.4046 47.8849 75.2911C47.4306 75.2154 46.9764 75.1397 46.5221 75.064C46.3707 74.7611 46.1815 74.4583 45.9543 74.1933C45.8029 74.004 45.5758 73.8526 45.4244 73.7012L45.5758 71.8085C46.4464 71.43 47.0142 70.6351 47.1278 69.6887C47.2414 68.7802 46.8628 67.8339 46.1436 67.2282L46.5221 65.5626C47.1657 65.5248 47.8092 65.2598 48.3013 64.7677C48.7555 64.3513 49.0583 63.7835 49.1341 63.14L49.664 62.9886C50.5346 62.4586 51.4431 61.9287 52.3516 61.4744C53.1844 61.058 54.1308 60.6795 55.0393 60.301L56.137 61.1337L56.2884 59.8846L56.7805 59.6574C56.9319 60.036 57.1591 60.3388 57.424 60.6038C57.7269 60.9066 58.0297 61.1337 58.3704 61.2852C58.5218 60.9445 58.6354 60.5281 58.6732 60.1495C58.7111 59.8089 58.6354 59.506 58.5975 59.1653L61.853 62.1179C62.1558 63.0264 62.7236 63.8592 63.4807 64.4649C64.2377 65.1084 65.1462 65.5626 66.1683 65.6762L66.5468 65.7519C66.6982 65.8276 66.8875 65.9033 67.0011 65.979L67.0389 65.6762C66.9254 65.6005 66.8497 65.5248 66.6982 65.4491C66.5847 65.4112 66.4333 65.3734 66.3576 65.3734C65.5626 65.2598 64.8056 64.9948 64.162 64.5027C63.405 64.0106 62.7993 63.3293 62.4208 62.4586L64.3892 63.8214L64.3513 63.4807C63.5185 62.875 62.7236 62.2694 61.9287 61.6258C61.2094 60.9823 60.4524 60.3388 59.7331 59.6953C58.9761 59.0518 58.2568 58.3326 57.6133 57.5755C56.9698 56.8563 56.4398 56.0235 55.9478 55.1907C55.3421 54.0551 55.0014 52.8059 54.85 51.5567C54.6986 50.3832 54.7743 49.2476 55.0014 48.0742C55.0393 45.6894 55.9856 42.4718 55.9856 42.0175C56.0235 41.1848 56.0613 40.2763 55.9099 39.4435C55.7585 38.6107 55.4935 37.7779 55.0771 36.983C55.3042 37.0587 55.5692 37.1344 55.7963 37.248C56.0235 37.3615 56.2884 37.5129 56.5156 37.6644L56.3263 37.1723C55.3799 36.6044 54.32 36.3016 53.2223 36.1123C51.9352 35.9231 50.6482 36.0745 49.399 36.2638C47.5063 36.5287 45.9165 38.005 44.5916 39.3299C43.5695 40.3141 42.926 41.1091 41.9418 41.904C41.4497 42.2447 40.6169 43.1532 39.9356 43.4938C39.2163 43.8345 38.535 44.0995 37.7022 44.0995L37.5508 44.4023C37.7022 44.4402 37.8158 44.4023 37.9672 44.4023C38.1943 44.3645 38.3836 44.3266 38.6107 44.2888C38.3079 44.8187 38.0429 45.3487 37.8158 45.8786C37.5508 46.56 37.3237 47.2792 37.1344 47.9606C36.8694 49.2855 36.4152 50.5347 35.6959 51.6703C34.9767 52.768 34.0682 53.7522 33.0083 54.585C32.7055 54.7364 32.4027 54.8879 32.0998 54.9636C31.7591 55.0393 31.4185 55.0393 31.1156 55.0393L31.0778 55.4935C31.4563 55.5314 31.8348 55.5314 32.2512 55.4557C32.7433 55.3042 33.2354 55.0393 33.614 54.6607C33.0083 56.402 32.0241 57.9162 30.6992 59.241C29.4879 60.4145 28.0873 61.3609 26.4975 61.9665C26.346 62.0422 26.1568 62.0044 26.0811 61.8908C26.0054 61.7773 26.0054 61.6258 26.0432 61.4744C26.4596 60.6038 26.8003 59.7331 27.1031 58.8247C27.3681 58.1433 27.5574 57.4619 27.7466 56.7427C28.693 53.7901 29.8664 50.9132 31.2292 48.1499C32.4784 45.7272 33.879 43.3424 35.4688 41.1091C36.4909 39.4056 37.6643 37.7779 38.9892 36.3016C40.9198 34.1439 43.1531 32.2513 45.5758 30.6614C47.7335 29.4879 50.1183 28.958 52.5409 29.0715C54.0172 29.1472 55.4178 29.4501 56.8184 29.98C57.9919 30.5478 58.9761 31.4185 59.771 32.4405C60.7552 33.8411 61.323 35.5067 61.2851 37.2858L60.9445 43.3424C60.9445 44.478 60.9445 45.6137 60.9823 46.7493C61.0202 47.9227 61.0959 49.0584 61.2094 50.2318C61.2851 51.9353 61.9665 53.563 63.1021 54.8121C64.3892 56.2506 66.244 57.1591 68.2124 57.2348C68.6666 57.2726 69.1966 57.3105 69.6508 57.3862C70.0672 57.4241 70.5215 57.5376 70.9379 57.6512C71.2407 57.8026 71.5814 57.9919 71.8842 58.1811C72.0356 58.2947 72.2249 58.4083 72.3763 58.5218C72.4899 58.6354 72.5656 58.7111 72.717 58.7489C72.7927 58.7868 72.8684 58.8247 73.0198 58.8247L73.1713 58.5218C73.0577 58.5218 72.982 58.484 72.8684 58.4461C72.7927 58.4083 72.6791 58.3704 72.6413 58.2947C72.4142 58.1054 72.2249 57.9162 72.0356 57.7647C71.8085 57.6133 71.5435 57.4619 71.2786 57.3484C70.7865 57.1591 70.2944 57.0077 69.8023 56.8941C69.2723 56.8184 68.7045 56.7427 68.1367 56.7427C69.083 56.5534 69.9537 56.0613 70.5972 55.2664C71.1271 54.6229 71.4678 53.8658 71.5435 53.033C72.7549 52.8059 73.9662 52.4652 75.1018 52.0488C75.556 51.8595 75.9724 51.7081 76.4267 51.481C76.6917 51.8217 77.0702 52.1245 77.4866 52.3516C77.8273 52.5788 78.2437 52.6545 78.6601 52.7302L78.7736 53.9415C77.9408 54.5472 77.4487 55.5314 77.4866 56.5913C77.5244 57.5376 77.8273 58.484 78.6601 59.0139L78.6979 60.5281C77.8651 61.0202 77.2973 61.9665 77.2595 62.9129C77.2216 63.9728 77.638 64.9191 78.5086 65.4869L78.4708 67.1147C77.8651 67.4175 77.4487 67.8717 77.1459 68.4774C76.8431 69.1588 76.7674 69.9158 76.9566 70.5972L76.9945 70.6351C76.6917 70.8622 76.3131 71.0514 76.0103 71.2407C75.4046 71.5435 74.799 71.695 74.1176 71.8464C71.7328 71.9978 69.3859 72.4899 67.1525 73.3227C65.1841 74.0798 63.2535 75.1018 61.5501 76.351C61.1337 76.7674 60.7552 77.2216 60.4145 77.6759C60.1495 78.0544 59.9224 78.4708 59.7331 78.8493C59.6196 79.0008 59.5439 79.1143 59.5439 79.2657C59.5439 79.455 59.5439 79.6064 59.6196 79.7578C59.6574 80.6663 58.9382 81.3856 58.0297 81.3856C57.0455 81.3477 56.3263 80.4392 56.5156 79.455C56.5156 79.1522 56.4777 78.8493 56.402 78.5465C56.3263 78.2437 56.2127 77.9787 56.0992 77.6759C55.5314 77.3352 55.4935 76.8052 55.7206 76.351ZM56.7048 57.1212C56.8562 57.3862 57.1212 57.6512 57.3105 57.8783L58.0676 58.6354C58.219 59.0139 58.2947 59.4303 58.2947 59.8846C58.2947 60.1495 58.2568 60.4145 58.1433 60.6795C57.5376 60.3388 57.0834 59.8467 56.8562 59.241C56.5534 58.5597 56.5156 57.8405 56.7048 57.1212ZM77.6002 71.165L77.373 71.5435C76.9188 70.9379 76.7295 70.1051 76.8809 69.348C77.0323 68.5909 77.5244 67.9853 78.2058 67.6068L78.1301 68.326C77.7894 68.6667 77.5244 69.083 77.4109 69.4994C77.2595 70.0672 77.2973 70.6351 77.6002 71.165ZM65.6762 76.1239C65.6762 76.0482 65.6762 75.9346 65.7898 75.8967C65.8276 75.8589 65.9033 75.8589 65.9412 75.9346L69.6508 78.2058C69.7266 78.2437 69.7644 78.3572 69.6887 78.4708C69.613 78.5465 69.5373 78.5465 69.4237 78.5465L65.6762 76.1239ZM66.1304 76.9945C65.6762 77.0324 65.2219 76.9945 64.8055 76.8431C64.4649 76.7295 64.0863 76.5024 63.8214 76.2753L64.0106 75.6696C64.1999 75.9724 64.5027 76.1996 64.8055 76.3131C65.1462 76.5403 65.5626 76.616 65.9412 76.6538L66.1304 76.9945ZM65.9412 74.3447L66.4711 74.0798C66.6604 74.3447 66.8118 74.6476 66.8875 74.9504C66.9632 75.2911 67.0389 75.6696 67.0389 76.0482L66.6225 75.9724C66.5468 75.6696 66.4333 75.3668 66.3197 75.064C66.244 74.799 66.1304 74.534 65.9412 74.3447ZM69.6508 77.7137L69.4994 77.373C70.0294 77.2216 70.5972 77.2216 71.1271 77.4109C71.6571 77.6002 72.5277 78.4329 72.4899 78.4329L72.1492 78.5087C71.8464 78.2437 71.5435 78.0166 71.2407 77.903C70.7108 77.7137 70.1429 77.638 69.6508 77.7137ZM71.7328 79.1143L75.6696 77.4488C75.7075 77.4488 75.7832 77.4866 75.821 77.5623C75.8589 77.6002 75.821 77.638 75.821 77.7137L71.8464 79.455C71.7328 79.455 71.6571 79.4171 71.6571 79.3036C71.6193 79.2279 71.6192 79.1522 71.7328 79.1143ZM75.6696 75.6696C75.3289 76.086 75.1396 76.6538 75.1018 77.2216L74.7611 77.373C74.6854 76.616 74.9125 75.821 75.4425 75.1775C75.7453 74.8368 76.1238 74.534 76.616 74.3826L76.7295 74.799C76.3131 75.0261 75.9724 75.3289 75.6696 75.6696ZM63.5942 77.4109C63.5564 77.9408 63.3671 78.4708 63.1021 78.8872L61.7015 78.8493C61.4366 78.6222 61.2094 78.3572 61.1337 78.0544C61.0202 77.6759 61.058 77.2595 61.2473 76.8809L63.7835 75.3289C63.8214 75.4804 63.7456 75.6696 63.6699 75.821C63.5942 75.9725 63.4807 76.0482 63.3671 76.1239C63.4807 76.5403 63.5942 76.9945 63.5942 77.4109ZM62.0801 89.7513C61.6637 89.9405 61.2473 90.2055 60.9066 90.4705C60.6795 90.2812 60.4145 90.1298 60.1874 89.9405C59.8467 89.7891 59.5439 89.5998 59.1653 89.4863L56.0235 88.5399C56.1749 88.3885 56.2506 88.2749 56.3641 88.0857C56.402 87.9721 56.4777 87.7829 56.4777 87.6693L56.9698 81.8019L58.1054 81.8777L57.9161 85.8523C57.954 86.458 58.1811 87.0258 58.5975 87.48C59.0139 87.9721 59.5817 88.1992 60.2252 88.2749L60.3009 88.0857C60.0738 88.0478 59.8467 88.01 59.6574 87.8964C59.4303 87.7829 59.241 87.6314 59.0896 87.48C59.8467 87.6314 60.5659 87.745 61.3609 87.8207C61.9665 87.9343 62.5722 88.01 63.1778 88.0857C63.2535 88.2371 63.405 88.3885 63.4807 88.5399C63.7078 88.7671 63.9349 89.032 64.1999 89.2213C63.4428 89.2591 62.7236 89.4484 62.0801 89.7513ZM67.1146 86.3065C66.8118 86.4201 66.5468 86.5715 66.2819 86.7987C66.0926 86.6851 65.8655 86.6094 65.6383 86.5337C65.3355 86.458 65.1084 86.4201 64.8434 86.3823V86.3065L60.4902 85.5495C60.6416 85.4359 60.8309 85.3223 60.9823 85.1709C61.1337 85.0195 61.2473 84.7924 61.2851 84.5653L61.6637 79.2279L62.7993 79.3414L62.6479 82.4833C62.61 83.2404 62.9886 83.9975 63.5942 84.4896C63.9349 84.7545 64.3892 84.906 64.8055 84.9817V84.7924C64.6163 84.7167 64.3892 84.641 64.1999 84.4896C64.0106 84.4139 63.8214 84.2624 63.6699 84.111C64.1999 84.1489 64.7298 84.1489 65.2977 84.1489C65.6383 84.1489 65.979 84.1489 66.3576 84.111C66.5468 84.4517 66.8118 84.7545 67.0768 85.0195C67.4175 85.3981 67.8717 85.7009 68.3638 85.8902C67.8717 86.0037 67.4932 86.1173 67.1146 86.3065ZM70.3701 80.4013C69.4616 80.0985 68.8181 79.4171 68.5531 78.5087L69.083 78.5465C69.3102 79.1522 69.7644 79.6064 70.3701 79.8335C71.1271 80.1364 71.9221 80.0607 72.6035 79.6443L72.9441 79.8335C72.2628 80.4771 71.2786 80.7042 70.3701 80.4013ZM77.4866 77.7137C76.9566 78.2058 76.3131 78.5087 75.5939 78.5087L75.7453 77.9787C76.2753 77.8651 76.7295 77.5623 77.0702 77.1838C77.638 76.5403 77.8651 75.6696 77.6002 74.799L77.9408 74.5719C78.4708 75.6318 78.2437 76.9188 77.4866 77.7137ZM77.1838 75.7075C77.1081 75.7453 77.0323 75.7453 76.9945 75.7453C76.8809 75.7075 76.8809 75.5939 76.9188 75.4803L78.0544 70.9379C78.1301 70.9 78.168 70.8622 78.2058 70.8622C78.2815 70.8622 78.3572 70.9379 78.4329 71.0136L77.1838 75.7075ZM77.8273 69.6887L78.1301 68.8181L78.3572 69.1588L77.8273 69.6887ZM78.3951 68.5531L78.5465 64.427C78.5465 64.3135 78.6601 64.1999 78.8493 64.2378C78.925 64.2378 78.9629 64.2756 79.0007 64.3513L78.8493 68.6288C78.8115 68.7045 78.6979 68.7424 78.6222 68.7424C78.4708 68.7424 78.3951 68.6667 78.3951 68.5531ZM79.985 69.9537C79.8335 70.7108 79.3793 71.3164 78.6979 71.695L78.5086 71.2786C79.0007 70.8243 79.3414 70.2565 79.455 69.5751C79.5307 69.0452 79.4929 68.4395 79.2279 67.9474L79.4171 67.7203C79.9092 68.2881 80.1742 69.1209 79.985 69.9537ZM81.9533 60.7173C81.7262 63.14 80.8934 65.4491 79.4928 67.4175L79.1522 67.3796L79.2279 65.7141C80.0985 65.222 80.6285 64.2756 80.6663 63.2914C80.742 62.1936 80.2121 61.1716 79.3793 60.5659L79.4171 59.0896C80.2878 58.484 80.8177 57.4998 80.7799 56.4399C80.742 55.38 80.1742 54.3958 79.3036 53.8658V53.9037L79.2657 52.9195L79.8335 52.3516L80.477 53.3358C81.6505 55.6071 82.1805 58.1433 81.9533 60.7173ZM84.5653 47.3171C84.376 47.3549 84.1489 47.2414 84.111 47.0143C83.6946 46.2193 83.2782 45.4244 82.824 44.6295C82.1805 43.5317 81.4613 42.4718 80.742 41.4119L82.6347 40.4277C82.7104 40.3898 82.8618 40.352 82.9375 40.352C83.0133 40.352 83.089 40.3898 83.1647 40.4655C83.3161 40.6548 83.4296 40.8819 83.5432 41.0712C83.6189 41.374 83.7325 41.6769 83.7325 41.9797C83.7703 42.6232 83.846 43.3046 83.9975 43.9859C84.1867 44.9323 84.4138 45.8408 84.7545 46.7493C84.9059 46.9764 84.7924 47.2414 84.5653 47.3171Z" fill="#1E2428"/>
</g>
<defs>
<clipPath id="clip0">
<rect width="115" height="116.59" fill="#1E2428"/>
</clipPath>
</defs>
</svg>
