<svg width="31" height="35" viewBox="0 0 31 35" fill="none" xmlns="http://www.w3.org/2000/svg">
<path d="M1.965 28.349C1.965 28.8537 2.18111 29.2832 2.4289 29.6104C2.67948 29.9412 3.01344 30.2368 3.38216 30.4993C4.1208 31.0251 5.13332 31.5125 6.31778 31.9293C8.69665 32.7665 11.9384 33.3778 15.5 33.3778C19.062 33.3778 22.3037 32.7665 24.6825 31.9293C25.8669 31.5125 26.8794 31.0251 27.618 30.4992C27.9867 30.2367 28.3206 29.9412 28.5712 29.6103C28.8189 29.2831 29.035 28.8536 29.035 28.349C29.035 26.5261 27.8635 24.518 26.1862 22.8588C24.9358 21.6219 23.3216 20.4927 21.4627 19.6814C23.8313 17.8812 25.3626 15.0344 25.3626 11.8272C25.3626 6.38055 20.947 1.965 15.5 1.965C10.0534 1.965 5.6378 6.38057 5.6378 11.8272C5.6378 15.0346 7.16895 17.8812 9.53727 19.6811C7.67828 20.4925 6.06408 21.6216 4.81362 22.8586C3.13635 24.5178 1.965 26.5259 1.965 28.349Z" stroke="#1E2428" stroke-width="3" stroke-linecap="round" stroke-linejoin="round"/>
</svg>
