<svg width="25" height="30" viewBox="0 0 25 30" fill="none" xmlns="http://www.w3.org/2000/svg">
<path d="M12.5 0.69C19.0045 0.69 24.31 5.99548 24.31 12.5C24.31 16.388 22.6057 19.1391 20.1973 21.6635C19.0824 22.832 17.8315 23.9367 16.5311 25.0851C16.4164 25.1864 16.3013 25.2881 16.1859 25.3901C14.9509 26.4821 13.6842 27.6169 12.5 28.8599C11.3158 27.6169 10.0491 26.4821 8.81412 25.3901C8.69869 25.2881 8.5836 25.1864 8.46888 25.0851C7.16848 23.9367 5.91755 22.832 4.80273 21.6635C2.39427 19.1391 0.69 16.388 0.69 12.5C0.69 5.99548 5.99548 0.69 12.5 0.69Z" stroke="#1E2428" stroke-width="2"/>
<path d="M17 12.5C17 14.9853 14.9853 17 12.5 17C10.0147 17 8 14.9853 8 12.5C8 10.0147 10.0147 8 12.5 8C14.9853 8 17 10.0147 17 12.5Z" stroke="#1E2428" stroke-width="2"/>
</svg>
