<svg width="34" height="41" viewBox="0 0 34 41" fill="none" xmlns="http://www.w3.org/2000/svg">
<g filter="url(#filter0_d)">
<g clip-path="url(#clip0)">
<path d="M17.2435 0.740508C25.6913 0.740508 32.5805 7.62964 32.5805 16.0775C32.5805 21.1388 30.3495 24.7125 27.2769 27.933C25.862 29.4159 24.2761 30.8165 22.6482 32.254C22.5033 32.382 22.358 32.5103 22.2125 32.6389C20.529 34.1275 18.8166 35.6638 17.2435 37.3622C15.6704 35.6638 13.958 34.1275 12.2745 32.6389C12.1289 32.5102 11.9836 32.3819 11.8387 32.2539C10.2109 30.8164 8.62492 29.4159 7.21012 27.933C4.13748 24.7125 1.90652 21.1388 1.90652 16.0775C1.90652 7.62964 8.79566 0.740508 17.2435 0.740508ZM23.8347 16.0775C23.8347 12.3035 20.8941 9.35337 17.2435 9.35337C13.4647 9.35337 10.5194 12.2987 10.5194 16.0775C10.5194 19.7281 13.4695 22.6687 17.2435 22.6687C20.8894 22.6687 23.8347 19.7234 23.8347 16.0775Z" fill="#FAC9A3" stroke="white"/>
<path d="M23.6439 16.0778C23.6439 19.6125 20.7785 22.4779 17.2438 22.4779C13.7092 22.4779 10.8438 19.6125 10.8438 16.0778C10.8438 12.5431 13.7092 9.67773 17.2438 9.67773C20.7785 9.67773 23.6439 12.5431 23.6439 16.0778Z" fill="white" stroke="white"/>
</g>
</g>
<defs>
<filter id="filter0_d" x="0.561523" y="0.395508" width="33.3639" height="40.4772" filterUnits="userSpaceOnUse" color-interpolation-filters="sRGB">
<feFlood flood-opacity="0" result="BackgroundImageFix"/>
<feColorMatrix in="SourceAlpha" type="matrix" values="0 0 0 0 0 0 0 0 0 0 0 0 0 0 0 0 0 0 127 0"/>
<feOffset dy="2"/>
<feGaussianBlur stdDeviation="0.5"/>
<feColorMatrix type="matrix" values="0 0 0 0 0 0 0 0 0 0 0 0 0 0 0 0 0 0 0.25 0"/>
<feBlend mode="normal" in2="BackgroundImageFix" result="effect1_dropShadow"/>
<feBlend mode="normal" in="SourceGraphic" in2="effect1_dropShadow" result="shape"/>
</filter>
<clipPath id="clip0">
<rect width="45.455" height="54.3148" fill="white" transform="translate(1.56152 0.395508) scale(0.69)"/>
</clipPath>
</defs>
</svg>
