<svg width="34" height="41" viewBox="0 0 34 41" fill="none" xmlns="http://www.w3.org/2000/svg">
<g filter="url(#filter0_d)">
<g clip-path="url(#clip0)">
<path d="M16.7347 0.740508C25.1825 0.740508 32.0717 7.62964 32.0717 16.0775C32.0717 21.1388 29.8407 24.7125 26.7681 27.933C25.3533 29.4159 23.7673 30.8165 22.1394 32.254C21.9945 32.382 21.8492 32.5103 21.7037 32.6389C20.0202 34.1275 18.3078 35.6638 16.7347 37.3622C15.1616 35.6638 13.4492 34.1275 11.7657 32.6389C11.6201 32.5102 11.4749 32.3819 11.3299 32.2539C9.70208 30.8164 8.11613 29.4159 6.70133 27.933C3.62869 24.7125 1.39773 21.1388 1.39773 16.0775C1.39773 7.62964 8.28687 0.740508 16.7347 0.740508ZM23.3259 16.0775C23.3259 12.3035 20.3853 9.35337 16.7347 9.35337C12.9559 9.35337 10.0106 12.2987 10.0106 16.0775C10.0106 19.7281 12.9607 22.6687 16.7347 22.6687C20.3806 22.6687 23.3259 19.7234 23.3259 16.0775Z" fill="#F7ADB6" stroke="white"/>
<path d="M23.1351 16.0778C23.1351 19.6125 20.2697 22.4779 16.735 22.4779C13.2004 22.4779 10.335 19.6125 10.335 16.0778C10.335 12.5431 13.2004 9.67773 16.735 9.67773C20.2697 9.67773 23.1351 12.5431 23.1351 16.0778Z" fill="white" stroke="white"/>
</g>
</g>
<defs>
<filter id="filter0_d" x="0.0527344" y="0.395508" width="33.3639" height="40.4772" filterUnits="userSpaceOnUse" color-interpolation-filters="sRGB">
<feFlood flood-opacity="0" result="BackgroundImageFix"/>
<feColorMatrix in="SourceAlpha" type="matrix" values="0 0 0 0 0 0 0 0 0 0 0 0 0 0 0 0 0 0 127 0"/>
<feOffset dy="2"/>
<feGaussianBlur stdDeviation="0.5"/>
<feColorMatrix type="matrix" values="0 0 0 0 0 0 0 0 0 0 0 0 0 0 0 0 0 0 0.25 0"/>
<feBlend mode="normal" in2="BackgroundImageFix" result="effect1_dropShadow"/>
<feBlend mode="normal" in="SourceGraphic" in2="effect1_dropShadow" result="shape"/>
</filter>
<clipPath id="clip0">
<rect width="45.455" height="54.3148" fill="white" transform="translate(1.05273 0.395508) scale(0.69)"/>
</clipPath>
</defs>
</svg>
