<svg width="26" height="26" viewBox="0 0 26 26" fill="none" xmlns="http://www.w3.org/2000/svg">
<g clip-path="url(#clip0)">
<path d="M8.59707 4.58843C7.30305 4.58843 6.01596 5.09983 5.03505 6.1264C3.07319 8.17949 3.06755 11.4747 5.02715 13.5294L12.8764 21.7611C13.0664 21.9619 13.4274 21.9619 13.6175 21.7611C16.2358 19.0208 18.8483 16.2776 21.4667 13.5373C23.4285 11.4842 23.4285 8.18749 21.4667 6.13437C19.5048 4.08125 16.2965 4.0812 14.3346 6.13437L13.2509 7.25796L12.1671 6.1264C11.1095 5.01529 9.79907 4.58305 8.59712 4.58843H8.59707ZM8.59707 5.59249C9.61682 5.59249 10.6419 6.00674 11.4339 6.83562L12.8843 8.35765C13.0743 8.55853 13.4353 8.55853 13.6254 8.35765L15.0677 6.84358C16.6518 5.18581 19.1494 5.18584 20.7335 6.84358C22.3175 8.50133 22.3175 11.1783 20.7335 12.8361C18.2396 15.446 15.7446 18.0595 13.2508 20.6694L5.76818 12.8281C4.18522 11.1683 4.18414 8.49332 5.76818 6.83562C6.56018 6.00675 7.57733 5.59249 8.59707 5.59249Z" fill="white" stroke="white" stroke-width="1.5"/>
</g>
<defs>
<clipPath id="clip0">
<rect width="36.9565" height="36.9565" fill="white" transform="translate(0.5 0.5) scale(0.69)"/>
</clipPath>
</defs>
</svg>
