<svg width="26" height="26" viewBox="0 0 26 26" fill="none" xmlns="http://www.w3.org/2000/svg">
<path d="M14.0131 19.2934L14.0131 19.2935L14.0177 19.2882C14.279 18.9944 14.3784 18.6177 14.3784 18.2236C14.3784 17.8269 14.2823 17.4429 14.0157 17.1494C13.7475 16.8485 13.3801 16.7275 12.9922 16.7275C12.6048 16.7275 12.2277 16.8402 11.9581 17.1458C11.699 17.4394 11.6133 17.8289 11.6133 18.2236C11.6133 18.6393 11.7099 19.0579 12.0196 19.3495L12.0196 19.3495L12.0254 19.3548C12.2957 19.6012 12.6311 19.7124 12.9922 19.7124C13.3801 19.7124 13.7431 19.5887 14.0131 19.2934ZM13.0032 14.5483C13.4853 14.5483 13.8824 14.1698 13.9056 13.6883L14.2242 7.07322C14.2578 6.37581 13.7014 5.79199 13.0032 5.79199C12.305 5.79199 11.7486 6.37581 11.7822 7.07322L12.1007 13.6883C12.1239 14.1698 12.5211 14.5483 13.0032 14.5483Z" fill="#1E2428" stroke="#1E2428"/>
<circle cx="13" cy="13" r="12" stroke="#1E2428" stroke-width="2"/>
</svg>
