<svg width="26" height="27" viewBox="0 0 26 27" fill="none" xmlns="http://www.w3.org/2000/svg">
<g clip-path="url(#clip0)">
<path d="M8.09707 4.30864C6.80305 4.30864 5.51596 4.82889 4.53505 5.87321C2.57319 7.96181 2.56755 11.314 4.52715 13.4042L12.3764 21.7783C12.5664 21.9826 12.9274 21.9826 13.1175 21.7783C15.7358 18.9907 18.3483 16.2 20.9667 13.4123C22.9285 11.3237 22.9285 7.96996 20.9667 5.88132C19.0048 3.79269 15.7965 3.79264 13.8346 5.88132L12.7509 7.02435L11.6671 5.87321C10.6095 4.74289 9.29907 4.30317 8.09712 4.30864H8.09707ZM8.09707 5.33007C9.11682 5.33007 10.1419 5.75149 10.9339 6.5947L12.3843 8.14305C12.5743 8.34742 12.9353 8.34742 13.1254 8.14305L14.5677 6.60281C16.1518 4.91635 18.6494 4.91639 20.2335 6.60281C21.8175 8.28922 21.8175 11.0125 20.2335 12.6989C17.7396 15.354 15.2446 18.0127 12.7508 20.6677L5.26818 12.6908C3.68522 11.0023 3.68414 8.28107 5.26818 6.5947C6.06018 5.75149 7.07733 5.33007 8.09707 5.33007V5.33007Z" stroke="#D8DDE0" stroke-width="2"/>
</g>
<defs>
<clipPath id="clip0">
<rect width="36.9565" height="37.5957" fill="white" transform="translate(0 0.149414) scale(0.69)"/>
</clipPath>
</defs>
</svg>
